<svg width="221" height="159" viewBox="0 0 221 159" fill="none" xmlns="http://www.w3.org/2000/svg">
<g clip-path="url(#clip0_173_1868)">
<path d="M1.23796 35.6779C0.80521 35.7758 0.438403 36.0077 0.218012 36.3228C-0.00237902 36.6379 -0.0583625 37.0104 0.062345 37.3586L28.4087 118.767C28.5304 119.115 28.8188 119.409 29.2106 119.587C29.6025 119.764 30.0657 119.809 30.4987 119.712L134.998 96.1818C135.431 96.0839 135.797 95.852 136.018 95.5369C136.238 95.2218 136.294 94.8493 136.173 94.5011L107.827 13.0932C107.705 12.7452 107.417 12.4502 107.025 12.273C106.633 12.0957 106.17 12.0507 105.737 12.1478L1.23796 35.6779Z" fill="#E6E6E6"/>
<path d="M31.813 115.868L131.394 93.4453L104.425 15.9922L4.84375 38.4149L31.813 115.868Z" fill="white"/>
<path d="M18.0088 48.757C17.3445 48.9066 17.0705 49.7941 17.3983 50.7353C17.726 51.6764 18.5332 52.3205 19.1976 52.1709L64.615 41.9442C65.2794 41.7946 65.5533 40.9071 65.2256 39.966C64.8979 39.0248 64.0907 38.3808 63.4263 38.5304L18.0088 48.757Z" fill="#E6E6E6"/>
<path d="M21.667 59.2609C21.0027 59.4105 20.7287 60.298 21.0565 61.2392C21.3842 62.1804 22.1914 62.8244 22.8558 62.6748L68.2732 52.4481C68.9376 52.2985 69.2115 51.4111 68.8838 50.4699C68.5561 49.5287 67.7489 48.8847 67.0845 49.0343L21.667 59.2609Z" fill="#E6E6E6"/>
<path d="M25.2823 69.6438C24.6179 69.7934 24.344 70.6808 24.6717 71.622C24.9994 72.5632 25.8066 73.2072 26.471 73.0576L71.8884 62.831C72.5528 62.6814 72.8267 61.7939 72.499 60.8527C72.1713 59.9115 71.3641 59.2675 70.6997 59.4171L25.2823 69.6438Z" fill="#E6E6E6"/>
<path d="M28.9405 80.1486C28.2761 80.2982 28.0022 81.1857 28.3299 82.1269C28.6576 83.0681 29.4648 83.7121 30.1292 83.5625L75.5466 73.3358C76.211 73.1862 76.485 72.2988 76.1572 71.3576C75.8295 70.4164 75.0223 69.7724 74.3579 69.922L28.9405 80.1486Z" fill="#E6E6E6"/>
<path d="M86.4756 33.4619C86.1966 33.5244 85.9356 33.6306 85.7076 33.7743C85.4796 33.918 85.2891 34.0965 85.147 34.2994C85.0048 34.5024 84.9138 34.7259 84.8791 34.9572C84.8445 35.1885 84.8668 35.423 84.9449 35.6473C85.023 35.8716 85.1554 36.0814 85.3343 36.2645C85.5133 36.4477 85.7354 36.6007 85.988 36.7148C86.2406 36.8289 86.5186 36.9018 86.8063 36.9294C87.0939 36.957 87.3855 36.9388 87.6644 36.8757L96.1549 34.9639C96.7179 34.8371 97.1952 34.5357 97.4818 34.126C97.7684 33.7162 97.8408 33.2317 97.6832 32.779C97.5256 32.3263 97.1508 31.9425 96.6412 31.712C96.1317 31.4815 95.5292 31.4233 94.9662 31.55L86.4756 33.4619Z" fill="#E6E6E6"/>
<path d="M90.0616 43.7617C89.7825 43.8242 89.5216 43.9304 89.2936 44.0741C89.0656 44.2178 88.8751 44.3963 88.7329 44.5992C88.5908 44.8022 88.4997 45.0257 88.4651 45.257C88.4304 45.4883 88.4528 45.7228 88.5309 45.9471C88.609 46.1714 88.7413 46.3812 88.9203 46.5643C89.0993 46.7475 89.3214 46.9005 89.574 47.0146C89.8265 47.1287 90.1046 47.2016 90.3922 47.2292C90.6798 47.2568 90.9714 47.2386 91.2503 47.1755L99.7409 45.2637C100.304 45.1369 100.781 44.8355 101.068 44.4258C101.354 44.016 101.427 43.5315 101.269 43.0788C101.112 42.6261 100.737 42.2423 100.227 42.0118C99.7176 41.7813 99.1151 41.7231 98.5522 41.8498L90.0616 43.7617Z" fill="#E6E6E6"/>
<path d="M93.649 54.0624C93.3702 54.1252 93.1096 54.2315 92.8819 54.3753C92.6543 54.519 92.464 54.6975 92.3221 54.9004C92.1802 55.1032 92.0894 55.3266 92.0548 55.5577C92.0203 55.7888 92.0427 56.0232 92.1207 56.2473C92.1988 56.4715 92.3309 56.6811 92.5097 56.8642C92.6885 57.0472 92.9104 57.2002 93.1627 57.3143C93.415 57.4284 93.6927 57.5015 93.9801 57.5293C94.2675 57.5571 94.5589 57.5391 94.8377 57.4763L103.328 55.5645C103.891 55.4377 104.368 55.1363 104.655 54.7266C104.942 54.3168 105.014 53.8323 104.857 53.3796C104.699 52.9269 104.324 52.5431 103.815 52.3126C103.305 52.0821 102.702 52.0239 102.14 52.1506L93.649 54.0624Z" fill="#E6E6E6"/>
<path d="M97.2344 64.3637C96.6721 64.4908 96.1955 64.7923 95.9094 65.2019C95.6233 65.6115 95.5511 66.0956 95.7086 66.548C95.8661 67.0004 96.2405 67.384 96.7495 67.6145C97.2585 67.845 97.8605 67.9037 98.4232 67.7775L106.914 65.8657C107.476 65.7385 107.953 65.437 108.239 65.0274C108.525 64.6179 108.597 64.1337 108.44 63.6814C108.282 63.229 107.908 62.8454 107.399 62.6149C106.89 62.3843 106.288 62.3257 105.725 62.4518L97.2344 64.3637Z" fill="#E6E6E6"/>
<path d="M100.662 82.218C100.306 82.2977 99.9738 82.433 99.6833 82.6161C99.3928 82.7992 99.1501 83.0266 98.9689 83.2852C98.7878 83.5439 98.6718 83.8287 98.6276 84.1234C98.5834 84.418 98.6119 84.7169 98.7115 85.0027C98.811 85.2885 98.9796 85.5558 99.2077 85.7892C99.4357 86.0226 99.7187 86.2175 100.041 86.3629C100.362 86.5083 100.717 86.6012 101.083 86.6364C101.45 86.6716 101.821 86.6483 102.177 86.568L112.995 84.1319C113.713 83.9704 114.321 83.5863 114.686 83.0642C115.051 82.5421 115.144 81.9247 114.943 81.3479C114.742 80.771 114.264 80.282 113.615 79.9883C112.966 79.6946 112.198 79.6204 111.481 79.7819L100.662 82.218Z" fill="#1C9352"/>
<path d="M111.796 73.4324L31.7383 91.459L31.9375 92.0312L111.995 74.0047L111.796 73.4324Z" fill="#E6E6E6"/>
<path d="M192.213 150.37L185.793 151.619L176.75 132.297L186.226 130.455L192.213 150.37Z" fill="#A0616A"/>
<path d="M174.715 159L174.671 158.856C174.162 157.155 174.513 155.361 175.647 153.868C176.781 152.375 178.605 151.304 180.719 150.891L193.281 148.449L195.253 155.008L174.715 159Z" fill="#2F2E41"/>
<path d="M163.789 153.888L157.184 153.888L154.041 133.398L163.79 133.399L163.789 153.888Z" fill="#A0616A"/>
<path d="M165.388 158.97L144.258 158.969V158.82C144.258 157.07 145.122 155.392 146.661 154.154C148.2 152.917 150.287 152.222 152.464 152.222H152.464L165.388 152.222L165.388 158.97Z" fill="#2F2E41"/>
<path d="M154.035 145.89L147.621 84.4215L174.172 80.4859L174.276 80.4707L182.048 84.4879L179.343 107.11L191.796 142.379L181.043 144.655L168.57 111.944L165.715 101.997L164.252 114.923L165.338 146.799L154.035 145.89Z" fill="#2F2E41"/>
<path d="M146.799 85.8151L146.729 85.7436L155.903 30.1924L155.915 30.1196L155.98 30.0676C156.115 29.9588 159.33 27.4044 162.636 27.4044C163.114 27.4044 163.569 27.3946 164.004 27.3858C166.535 27.3329 168.533 27.2906 170.909 29.201C173.329 31.147 181.225 38.253 181.225 47.9855C181.225 57.4056 182.292 86.6804 182.302 86.9749L182.317 87.3883L181.886 87.1628C181.78 87.1077 171.16 81.6697 162.253 86.7248C159.469 88.3048 156.969 88.8587 154.83 88.8587C149.854 88.8587 146.841 85.8587 146.799 85.8151Z" fill="#1C9352"/>
<path d="M167.581 22.8211C173.994 20.002 176.351 13.5359 172.845 8.37879C169.339 3.22165 161.299 1.32633 154.885 4.14548C148.472 6.96463 146.115 13.4307 149.621 18.5878C153.127 23.745 161.168 25.6403 167.581 22.8211Z" fill="#A0616A"/>
<path d="M140.974 97.7537C141.6 97.3635 142.113 96.8677 142.475 96.3012C142.837 95.7346 143.04 95.1111 143.07 94.4746C143.1 93.8381 142.956 93.2041 142.648 92.6171C142.34 92.0302 141.876 91.5046 141.289 91.0775L148.804 76.8223L138.964 78.2786L133.336 91.5924C132.509 92.4338 132.094 93.4898 132.171 94.5605C132.248 95.6311 132.81 96.642 133.752 97.4014C134.693 98.1609 135.949 98.6163 137.28 98.6812C138.611 98.7461 139.926 98.4161 140.974 97.7537Z" fill="#A0616A"/>
<path d="M133.713 86.6654L136.133 82.5568C135.983 82.4844 135.86 82.3817 135.776 82.2589C133.515 79.1078 147.172 52.9401 148.082 51.2045C147.943 50.2605 146.51 40.2568 147.558 36.8849C148.792 32.9155 151.326 31.0655 156.03 30.6991C161.219 30.3073 162.618 35.973 162.632 36.0306L162.637 50.596L156.682 67.3626L143.102 89.6396L133.713 86.6654Z" fill="#1C9352"/>
<path d="M162.925 17.4925C161.338 17.6585 160.142 16.3532 159.587 15.1467C159.032 13.9401 158.609 12.5355 157.229 11.8837C155.345 10.9933 152.934 12.0642 150.779 11.7704C148.346 11.4387 146.764 9.36473 146.64 7.38238C146.516 5.40004 147.497 3.49347 148.459 1.66578L148.795 3.93718C148.75 3.16735 148.952 2.40111 149.38 1.71177C149.809 1.02244 150.45 0.433054 151.243 0L150.81 3.33294C151.081 1.46574 153.583 0.0189187 155.87 0.40586L155.802 2.39174C158.613 2.12298 161.448 1.85384 164.267 2.0586C167.086 2.26336 169.925 2.9806 172.062 4.47355C175.258 6.70676 176.425 10.384 176.033 13.7742C175.641 17.1644 173.901 20.3492 172.087 23.4257C171.631 24.1998 170.999 25.0733 169.941 25.1719C168.99 25.2605 168.12 24.6213 167.825 23.8892C167.529 23.1571 167.674 22.3618 167.851 21.6054C168.118 20.4627 168.455 19.2947 168.204 18.1496C167.952 17.0046 166.928 15.8731 165.492 15.7327C164.057 15.5924 162.588 16.9118 163.278 17.9336L162.925 17.4925Z" fill="#2F2E41"/>
<path d="M220.858 158.993H125.625V158.367H220.999L220.858 158.993Z" fill="#3F3D56"/>
</g>
<defs>
<clipPath id="clip0_173_1868">
<rect width="221" height="159" fill="white"/>
</clipPath>
</defs>
</svg>
