<svg width="415" height="168" viewBox="0 0 415 168" fill="none" xmlns="http://www.w3.org/2000/svg">
<g clip-path="url(#clip0_154_3198)">
<path d="M172.91 142.899L138.97 151.084C138.97 151.084 132.049 150.241 138.612 139.911C139.201 138.981 139.901 137.98 140.723 136.893L158.313 127.664L158.149 126.423L154.404 98.1873L152.956 87.2588L163.996 76.2866L166.103 74.1904L194.122 101.898L193.921 102.292L182.209 124.925L172.91 142.899Z" fill="#FFB7B7"/>
<path d="M160.361 134.669L126.42 142.854C125.911 142.793 125.419 142.616 124.978 142.336C124.537 142.056 124.157 141.68 123.862 141.231C123.567 140.782 123.365 140.272 123.268 139.734C123.171 139.195 123.183 138.641 123.301 138.108C123.465 137.052 123.775 136.029 124.219 135.07C125.296 132.775 126.624 130.625 128.174 128.663L145.763 119.435L143.606 103.173L142.532 95.0631L141.837 89.82L140.407 79.0293L153.554 65.9609L167.873 80.1172L181.572 93.668L179.723 97.2355L177.519 101.499L166.94 121.954L164.785 126.12L160.361 134.669Z" fill="#FFB7B7"/>
<path d="M219.368 128.953C219.368 128.953 206.65 128.048 201.894 118.85C200.388 115.807 199.808 112.338 200.234 108.925L195.051 97.9708L187.674 82.3628L168.855 79.1861L167.873 80.1175L154.228 93.0783L150.053 97.044L143.607 103.173L112.343 132.869C111.099 135.239 109.499 137.376 107.609 139.195C105.871 140.918 103.959 142.43 101.908 143.7C95.9427 147.401 87.0254 150.277 74.203 148.767L6.60644 168L0 119.534L56.6962 99.6049L139.844 41.459L195.974 56.8159L222.003 96.328L219.368 128.953Z" fill="#FFB7B7"/>
<path d="M411.57 0H174.853C173.943 0.00108837 173.071 0.387864 172.428 1.07546C171.785 1.76305 171.423 2.69531 171.422 3.66771V153.52C171.423 154.492 171.785 155.424 172.428 156.112C173.071 156.799 173.943 157.186 174.853 157.187H411.57C412.479 157.186 413.352 156.799 413.995 156.112C414.638 155.424 415 154.492 415.001 153.52V3.66769C415 2.69531 414.638 1.76308 413.995 1.0755C413.351 0.387919 412.479 0.00113137 411.57 0Z" fill="white"/>
<path d="M411.57 0H174.853C173.943 0.00108837 173.071 0.387864 172.428 1.07546C171.785 1.76305 171.423 2.69531 171.422 3.66771V153.52C171.423 154.492 171.785 155.424 172.428 156.112C173.071 156.799 173.943 157.186 174.853 157.187H411.57C412.479 157.186 413.352 156.799 413.995 156.112C414.638 155.424 415 154.492 415.001 153.52V3.66769C415 2.69531 414.638 1.76308 413.995 1.0755C413.351 0.387919 412.479 0.00113137 411.57 0ZM414.02 153.52C414.02 154.214 413.762 154.88 413.302 155.372C412.843 155.863 412.22 156.139 411.57 156.139H174.853C174.203 156.139 173.58 155.863 173.12 155.372C172.661 154.88 172.402 154.214 172.402 153.52V3.66769C172.402 2.97297 172.661 2.30679 173.12 1.81555C173.58 1.32431 174.203 1.04821 174.853 1.04791H411.57C412.22 1.04821 412.843 1.32431 413.302 1.81555C413.762 2.30679 414.02 2.97297 414.02 3.66769V153.52Z" fill="#3F3D56"/>
<path d="M197.885 20.4353C196.722 20.4353 195.585 20.0666 194.618 19.3757C193.651 18.6848 192.897 17.7028 192.452 16.554C192.006 15.4051 191.89 14.1409 192.117 12.9212C192.344 11.7015 192.904 10.5812 193.726 9.70192C194.549 8.8226 195.597 8.22377 196.738 7.98117C197.879 7.73856 199.061 7.86307 200.136 8.33896C201.21 8.81484 202.129 9.62073 202.775 10.6547C203.421 11.6887 203.766 12.9043 203.766 14.1478C203.766 15.8154 203.147 17.4146 202.044 18.5938C200.941 19.7729 199.445 20.4353 197.885 20.4353ZM197.885 8.90825C196.916 8.90825 195.968 9.21556 195.162 9.79129C194.356 10.367 193.728 11.1853 193.357 12.1427C192.986 13.1001 192.889 14.1536 193.078 15.17C193.267 16.1864 193.734 17.12 194.42 17.8528C195.105 18.5856 195.978 19.0846 196.929 19.2867C197.88 19.4889 198.865 19.3852 199.761 18.9886C200.656 18.592 201.422 17.9204 201.96 17.0588C202.499 16.1971 202.786 15.1841 202.786 14.1478C202.786 13.4598 202.659 12.7784 202.413 12.1427C202.167 11.507 201.806 10.9294 201.351 10.4429C200.895 9.95636 200.355 9.57042 199.761 9.3071C199.166 9.04379 198.529 8.90825 197.885 8.90825Z" fill="#1C9352"/>
<path d="M188.743 14.1483C188.743 12.9489 189.093 11.7795 189.744 10.8029C190.395 9.82628 191.315 9.09114 192.376 8.69987C191.564 8.40038 190.697 8.31268 189.846 8.44405C188.996 8.57542 188.188 8.92206 187.488 9.45512C186.789 9.98818 186.219 10.6922 185.825 11.5086C185.432 12.3249 185.227 13.23 185.227 14.1483C185.227 15.0666 185.432 15.9717 185.825 16.788C186.219 17.6044 186.789 18.3084 187.488 18.8415C188.188 19.3745 188.996 19.7212 189.846 19.8526C190.697 19.9839 191.564 19.8962 192.376 19.5967C191.315 19.2054 190.395 18.4703 189.744 17.4937C189.093 16.5171 188.743 15.3477 188.743 14.1483Z" fill="#1C9352"/>
<path d="M221.725 88.4338C220.556 88.4323 219.435 87.9351 218.608 87.051C217.781 86.167 217.316 84.9684 217.314 83.7182V69.5713C217.316 68.3216 217.781 67.1236 218.608 66.2405C219.435 65.3574 220.556 64.8613 221.725 64.8613C222.894 64.8613 224.015 65.3574 224.842 66.2405C225.669 67.1236 226.135 68.3216 226.136 69.5713V83.7182C226.135 84.9684 225.67 86.167 224.843 87.051C224.016 87.9351 222.895 88.4323 221.725 88.4338Z" fill="#1C9352"/>
<path d="M233.487 88.4338C232.318 88.4323 231.196 87.9351 230.37 87.051C229.543 86.167 229.078 84.9684 229.076 83.7182V69.5713C229.078 68.3216 229.543 67.1236 230.37 66.2405C231.197 65.3574 232.318 64.8613 233.487 64.8613C234.656 64.8613 235.777 65.3574 236.604 66.2405C237.431 67.1236 237.896 68.3216 237.898 69.5713V83.7182C237.897 84.9684 237.431 86.167 236.605 87.051C235.778 87.9351 234.656 88.4323 233.487 88.4338Z" fill="#1C9352"/>
<path d="M245.249 88.4338C244.079 88.4323 242.958 87.9351 242.131 87.051C241.304 86.167 240.839 84.9684 240.838 83.7182V69.5713C240.839 68.3216 241.305 67.1236 242.132 66.2405C242.959 65.3574 244.08 64.8613 245.249 64.8613C246.418 64.8613 247.539 65.3574 248.366 66.2405C249.193 67.1236 249.658 68.3216 249.66 69.5713V83.7182C249.658 84.9684 249.193 86.167 248.366 87.051C247.539 87.9351 246.418 88.4323 245.249 88.4338Z" fill="#1C9352"/>
<path d="M263.384 88.4338C262.214 88.4323 261.093 87.9351 260.266 87.051C259.439 86.167 258.974 84.9684 258.973 83.7182V69.5713C258.974 68.3216 259.439 67.1236 260.266 66.2405C261.094 65.3574 262.215 64.8613 263.384 64.8613C264.552 64.8613 265.674 65.3574 266.501 66.2405C267.328 67.1236 267.793 68.3216 267.794 69.5713V83.7182C267.793 84.9684 267.328 86.167 266.501 87.051C265.674 87.9351 264.553 88.4323 263.384 88.4338Z" fill="#1C9352"/>
<path d="M275.145 88.4338C273.976 88.4323 272.855 87.9351 272.028 87.051C271.201 86.167 270.736 84.9684 270.734 83.7182V69.5713C270.736 68.3216 271.201 67.1236 272.028 66.2405C272.855 65.3574 273.976 64.8613 275.145 64.8613C276.314 64.8613 277.435 65.3574 278.262 66.2405C279.089 67.1236 279.555 68.3216 279.556 69.5713V83.7182C279.555 84.9684 279.09 86.167 278.263 87.051C277.436 87.9351 276.315 88.4323 275.145 88.4338Z" fill="#1C9352"/>
<path d="M286.907 88.4338C285.738 88.4323 284.616 87.9351 283.789 87.051C282.963 86.167 282.497 84.9684 282.496 83.7182V69.5713C282.497 68.3216 282.963 67.1236 283.79 66.2405C284.617 65.3574 285.738 64.8613 286.907 64.8613C288.076 64.8613 289.197 65.3574 290.024 66.2405C290.851 67.1236 291.316 68.3216 291.318 69.5713V83.7182C291.317 84.9684 290.851 86.167 290.024 87.051C289.198 87.9351 288.076 88.4323 286.907 88.4338Z" fill="#1C9352"/>
<path d="M305.042 88.4338C303.872 88.4323 302.751 87.9351 301.924 87.051C301.097 86.167 300.632 84.9684 300.631 83.7182V69.5713C300.632 68.3216 301.098 67.1236 301.925 66.2405C302.752 65.3574 303.873 64.8613 305.042 64.8613C306.211 64.8613 307.332 65.3574 308.159 66.2405C308.986 67.1236 309.451 68.3216 309.453 69.5713V83.7182C309.451 84.9684 308.986 86.167 308.159 87.051C307.332 87.9351 306.211 88.4323 305.042 88.4338Z" fill="#1C9352"/>
<path d="M316.803 88.4338C315.634 88.4323 314.513 87.9351 313.686 87.051C312.859 86.167 312.394 84.9684 312.393 83.7182V69.5713C312.394 68.3216 312.859 67.1236 313.686 66.2405C314.513 65.3574 315.635 64.8613 316.803 64.8613C317.972 64.8613 319.093 65.3574 319.921 66.2405C320.748 67.1236 321.213 68.3216 321.214 69.5713V83.7182C321.213 84.9684 320.748 86.167 319.921 87.051C319.094 87.9351 317.973 88.4323 316.803 88.4338Z" fill="#1C9352"/>
<path d="M328.567 88.4338C327.398 88.4323 326.277 87.9351 325.45 87.051C324.623 86.167 324.158 84.9684 324.156 83.7182V69.5713C324.158 68.3216 324.623 67.1236 325.45 66.2405C326.277 65.3574 327.398 64.8613 328.567 64.8613C329.736 64.8613 330.857 65.3574 331.684 66.2405C332.511 67.1236 332.977 68.3216 332.978 69.5713V83.7182C332.977 84.9684 332.512 86.167 331.685 87.051C330.858 87.9351 329.737 88.4323 328.567 88.4338Z" fill="#1C9352"/>
<path d="M346.7 88.4338C345.53 88.4323 344.409 87.9351 343.582 87.051C342.756 86.167 342.29 84.9684 342.289 83.7182V69.5713C342.29 68.3216 342.756 67.1236 343.583 66.2405C344.41 65.3574 345.531 64.8613 346.7 64.8613C347.869 64.8613 348.99 65.3574 349.817 66.2405C350.644 67.1236 351.109 68.3216 351.111 69.5713V83.7182C351.109 84.9684 350.644 86.167 349.817 87.051C348.991 87.9351 347.869 88.4323 346.7 88.4338Z" fill="#1C9352"/>
<path d="M358.462 88.4338C357.292 88.4323 356.171 87.9351 355.344 87.051C354.517 86.167 354.052 84.9684 354.051 83.7182V69.5713C354.052 68.3216 354.518 67.1236 355.345 66.2405C356.172 65.3574 357.293 64.8613 358.462 64.8613C359.631 64.8613 360.752 65.3574 361.579 66.2405C362.406 67.1236 362.871 68.3216 362.873 69.5713V83.7182C362.871 84.9684 362.406 86.167 361.579 87.051C360.752 87.9351 359.631 88.4323 358.462 88.4338Z" fill="#1C9352"/>
<path d="M370.225 88.4338C369.056 88.4323 367.935 87.9351 367.108 87.051C366.281 86.167 365.816 84.9684 365.814 83.7182V69.5713C365.816 68.3216 366.281 67.1236 367.108 66.2405C367.935 65.3574 369.056 64.8613 370.225 64.8613C371.394 64.8613 372.515 65.3574 373.342 66.2405C374.169 67.1236 374.635 68.3216 374.636 69.5713V83.7182C374.635 84.9684 374.17 86.167 373.343 87.051C372.516 87.9351 371.395 88.4323 370.225 88.4338Z" fill="#1C9352"/>
<path d="M251.629 140.917H188.191C187.801 140.918 187.415 140.836 187.055 140.677C186.695 140.518 186.368 140.285 186.092 139.991C185.817 139.697 185.598 139.347 185.449 138.962C185.299 138.578 185.223 138.165 185.223 137.749C185.223 137.332 185.299 136.92 185.449 136.535C185.598 136.15 185.817 135.801 186.092 135.507C186.368 135.212 186.695 134.979 187.055 134.82C187.415 134.661 187.801 134.579 188.191 134.58H251.629C252.414 134.581 253.167 134.916 253.722 135.51C254.277 136.104 254.589 136.909 254.589 137.749C254.589 138.588 254.277 139.393 253.722 139.988C253.167 140.582 252.414 140.916 251.629 140.917Z" fill="#E6E6E6"/>
<path d="M231.29 127.294H208.53C207.744 127.294 206.99 126.96 206.435 126.366C205.879 125.772 205.566 124.966 205.566 124.126C205.566 123.285 205.879 122.479 206.435 121.885C206.99 121.291 207.744 120.957 208.53 120.957H231.29C232.077 120.957 232.83 121.291 233.386 121.885C233.942 122.479 234.254 123.285 234.254 124.126C234.254 124.966 233.942 125.772 233.386 126.366C232.83 126.96 232.077 127.294 231.29 127.294Z" fill="#E6E6E6"/>
<path d="M413.843 31.3223H172.225V32.3702H413.843V31.3223Z" fill="#3F3D56"/>
<path opacity="0.15" d="M144.598 137.585L144.084 136.345L165.032 126.413L170.025 107.684L162.498 101.177L163.296 100.121L171.476 107.192L166.09 127.396L144.598 137.585Z" fill="black"/>
<path opacity="0.1" d="M124.219 135.07L118.713 137.937L107.609 139.194C105.871 140.918 103.959 142.429 101.908 143.7L92.1708 143.355L75.7246 142.804L131.324 92.1201L142.533 95.0632C142.533 95.0632 123.7 136.253 124.219 135.07Z" fill="black"/>
<path d="M201.894 118.85C200.434 119.15 198.834 119.399 197.066 119.589C187.938 120.565 168.642 121.862 166.94 121.953C155.511 122.528 148.326 122.522 148.326 122.522L124.219 135.07L118.713 137.937L74.082 142.99L134.516 87.8984L141.837 89.8197L154.228 93.0777L167.879 96.6657L179.723 97.2353L195.051 97.9703L207.439 98.5651C209.586 98.6447 211.615 99.6291 213.085 101.303C214.555 102.977 215.345 105.205 215.284 107.5C215.089 111.87 212.255 116.697 201.894 118.85Z" fill="#FFB7B7"/>
<path opacity="0.15" d="M206.593 115.529C206.395 115.464 201.741 113.899 200.264 109.519C199.271 106.574 199.97 103.128 202.341 99.2773L203.402 100.023C201.264 103.494 200.609 106.531 201.455 109.05C202.711 112.79 206.922 114.217 206.964 114.231L206.593 115.529Z" fill="black"/>
<path opacity="0.15" d="M146.375 122.781L125.047 133.887L125.603 135.107L146.931 124.001L146.375 122.781Z" fill="black"/>
<path opacity="0.15" d="M138.41 91.2931L168.621 78.5547L169.087 79.8175L142.98 90.8256L165.168 95.2565L164.934 96.5906L138.41 91.2931Z" fill="black"/>
</g>
<defs>
<clipPath id="clip0_154_3198">
<rect width="415" height="168" fill="white"/>
</clipPath>
</defs>
</svg>
