<svg width="256" height="189" viewBox="0 0 256 189" fill="none" xmlns="http://www.w3.org/2000/svg">
<g clip-path="url(#clip0_150_4819)">
<path d="M234.169 66.1288C233.9 66.3697 233.631 66.6001 233.356 66.827H165.482C164.976 66.6001 164.473 66.3674 163.972 66.1288C156.806 62.7267 150.137 58.1965 144.176 52.6828C140.219 49.0246 136.578 45.2477 133.938 41.7082C130.255 36.7689 126.864 31.3863 125.286 25.2533C123.712 19.1202 124.183 12.09 127.699 7.00411C128.788 5.43962 130.126 4.10223 131.65 3.05617C131.903 2.88164 132.159 2.71409 132.421 2.55701C136.638 -0.0260732 141.959 -0.654395 146.707 0.682527C153.506 2.5989 159.156 7.95008 163.188 14.2263C167.219 20.499 169.837 27.7037 172.415 34.8281C175.032 22.1117 182.958 10.7217 193.663 4.93066C204.366 -0.860345 217.663 -0.79053 228.138 5.48218C231.434 7.4678 234.411 10.0263 236.953 13.0569C237.205 13.3536 237.452 13.6573 237.695 13.9645C242.804 20.4187 246.001 28.6846 246.263 37.2088C246.599 48.1904 241.934 59.2208 234.169 66.1288Z" fill="#F2F2F2"/>
<path d="M168.196 66.8274H167.237C167.224 66.5936 167.208 66.3632 167.189 66.1293C166.853 61.5634 166.151 57.0384 165.09 52.6065C162.655 42.4884 158.497 32.9606 152.832 24.5207C147.184 16.0537 140.063 8.88255 131.876 3.41615C131.816 3.37872 131.764 3.32688 131.726 3.26458C131.687 3.20228 131.662 3.13116 131.652 3.05662C131.636 2.95914 131.646 2.85881 131.681 2.76733C131.715 2.67584 131.773 2.59697 131.847 2.5399C131.921 2.48283 132.009 2.44991 132.099 2.44498C132.19 2.44006 132.28 2.46333 132.359 2.51207C132.381 2.52596 132.402 2.5411 132.423 2.55745C137.061 5.64198 141.367 9.28586 145.259 13.4204C152.221 20.8297 157.835 29.6096 161.804 39.2966C165.305 47.7806 167.45 56.8559 168.145 66.1293C168.165 66.3632 168.181 66.5971 168.196 66.8274Z" fill="white"/>
<path d="M237.695 13.9649C237.688 13.9688 237.68 13.9711 237.672 13.9718C236.972 14.1115 236.268 14.2581 235.57 14.4151C229.845 15.698 224.24 17.5548 218.827 19.9618C213.429 22.3654 208.236 25.2857 203.309 28.6884C198.377 32.0894 193.725 35.9531 189.408 40.2355C185.09 44.5119 181.129 49.1985 177.573 54.2401C174.914 58.0174 172.497 61.9899 170.339 66.1292C170.217 66.3596 170.099 66.5935 169.98 66.8274H168.883C168.998 66.5935 169.116 66.3596 169.238 66.1292C171.849 61.0573 174.844 56.2316 178.19 51.7023C181.891 46.6898 185.993 42.0463 190.447 37.827C194.874 33.6314 199.625 29.8614 204.647 26.5591C209.69 23.2435 214.992 20.4213 220.491 18.1257C225.827 15.9 231.337 14.2036 236.952 13.0573C237.109 13.0259 237.263 12.9944 237.42 12.963C238.018 12.8443 238.274 13.8287 237.695 13.9649Z" fill="white"/>
<path d="M63.2485 68.9023C64.9553 65.3869 65.2371 60.8084 63.1147 57.5736C61.8513 55.6481 59.8787 54.3841 57.8089 53.6712C55.7391 52.9582 53.5556 52.7487 51.3909 52.5754C49.2481 52.4039 47.0672 52.2666 44.9739 52.7954C42.8807 53.3241 40.8532 54.6159 39.8335 56.6792C38.1109 60.1647 39.6801 64.6342 38.4148 68.3457C37.2537 71.7519 33.9492 73.7432 30.7007 74.5468C27.4522 75.3504 24.0617 75.2649 20.8116 76.0607C17.5615 76.8565 14.2514 78.8293 13.0698 82.227C12.2152 84.684 12.6398 87.5141 13.7658 89.8372C14.8918 92.1603 16.6552 94.041 18.5271 95.6949C21.3195 98.1622 24.5865 100.275 28.1745 100.489C31.9552 100.715 35.6518 98.7511 38.3729 95.8788C41.094 93.0064 42.9466 89.2946 44.4266 85.4924C45.3656 83.0804 46.2527 80.4845 48.1343 78.8557C49.517 77.6588 51.2755 77.1345 52.981 76.6386L54.9121 76.077C56.6621 75.5775 58.2998 74.6926 59.7246 73.4768C61.1494 72.261 62.3311 70.74 63.197 69.0074C63.2142 68.9725 63.2314 68.9374 63.2485 68.9023Z" fill="#2F2E41"/>
<path d="M48.0171 184.539H44.0948L42.2285 168.032H48.018L48.0171 184.539Z" fill="#FFB8B8"/>
<path d="M41.2943 183.316H48.8592V188.513H36.5313C36.5312 187.831 36.6544 187.155 36.8938 186.524C37.1332 185.894 37.484 185.321 37.9263 184.838C38.3686 184.356 38.8937 183.973 39.4716 183.712C40.0495 183.451 40.6688 183.316 41.2943 183.316Z" fill="#2F2E41"/>
<path d="M80.6538 184.539H76.7315L74.8652 168.032H80.6548L80.6538 184.539Z" fill="#FFB8B8"/>
<path d="M73.9291 183.316H81.494V188.513H69.166C69.166 187.831 69.2892 187.155 69.5286 186.524C69.7679 185.894 70.1188 185.321 70.5611 184.838C71.0034 184.356 71.5285 183.973 72.1063 183.712C72.6842 183.451 73.3036 183.316 73.9291 183.316Z" fill="#2F2E41"/>
<path d="M55.5588 171.419C55.504 171.419 55.4494 171.416 55.395 171.41L39.4366 169.544C39.2247 169.519 39.02 169.446 38.8362 169.328C38.6524 169.21 38.4938 169.051 38.3708 168.861C38.2478 168.671 38.1633 168.455 38.1229 168.226C38.0825 167.998 38.0872 167.763 38.1366 167.537L52.2664 108.904C52.3326 108.606 52.4738 108.333 52.6743 108.118C52.8747 107.903 53.1263 107.753 53.4008 107.685L66.5085 103.699C66.7713 103.636 67.0448 103.65 67.3007 103.741C67.5565 103.832 67.7855 103.996 67.9638 104.216C76.3915 114.587 82.7425 137.576 87.5535 166.554C87.5898 166.772 87.5849 166.997 87.5392 167.213C87.4934 167.43 87.4077 167.634 87.2873 167.813C87.1669 167.993 87.0144 168.143 86.8389 168.256C86.6635 168.369 86.4688 168.442 86.2667 168.47L73.191 170.291C72.8202 170.344 72.4447 170.243 72.1385 170.009C71.8323 169.775 71.6176 169.424 71.5366 169.025L65.1748 138.081C65.1163 137.797 64.9699 137.542 64.7601 137.361C64.5503 137.18 64.2898 137.083 64.0223 137.086C63.7548 137.09 63.4965 137.193 63.2906 137.38C63.0846 137.566 62.9437 137.824 62.8912 138.11L57.0264 170.102C56.96 170.474 56.7772 170.808 56.5094 171.048C56.2416 171.289 55.9055 171.42 55.5588 171.419Z" fill="#2F2E41"/>
<path d="M53.1318 76.9535C57.4718 76.9535 60.9901 73.115 60.9901 68.3801C60.9901 63.6451 57.4718 59.8066 53.1318 59.8066C48.7917 59.8066 45.2734 63.6451 45.2734 68.3801C45.2734 73.115 48.7917 76.9535 53.1318 76.9535Z" fill="#FFB8B8"/>
<path d="M52.911 109.068C52.5807 109.068 52.2597 108.949 51.998 108.729C51.7364 108.509 51.5488 108.2 51.4644 107.852L46.7369 88.4753C46.3957 87.083 46.537 85.6023 47.1338 84.3166C47.7306 83.0308 48.7409 82.0303 49.9716 81.5064C53.7771 79.8858 57.4027 79.2845 60.7477 79.7187C63.7206 80.1053 67.3881 99.3077 67.1455 99.7174L68.3187 103.557C68.3852 103.775 68.409 104.005 68.3886 104.234C68.3682 104.462 68.304 104.683 68.2001 104.883C68.0963 105.083 67.9551 105.256 67.7858 105.393C67.6165 105.529 67.4228 105.625 67.2174 105.674L53.2371 109.029C53.13 109.055 53.0207 109.068 52.911 109.068Z" fill="#CCCCCC"/>
<path d="M57.1482 128.884C57.2155 128.503 57.2054 128.11 57.1185 127.733C57.0316 127.357 56.8701 127.005 56.6454 126.704C56.4206 126.403 56.1381 126.159 55.8176 125.99C55.4972 125.821 55.1467 125.731 54.7907 125.725L52.067 116.765L49.2832 120.617L52.2965 128.536C52.3279 129.189 52.5777 129.806 52.9987 130.272C53.4196 130.737 53.9824 131.018 54.5805 131.061C55.1785 131.104 55.7702 130.906 56.2434 130.505C56.7167 130.103 57.0386 129.527 57.1482 128.884Z" fill="#FFB8B8"/>
<path d="M92.1667 107.35C92.0037 107.005 91.7732 106.703 91.4916 106.465C91.21 106.228 90.884 106.06 90.5368 105.975C90.1895 105.89 89.8293 105.889 89.4815 105.972C89.1338 106.055 88.807 106.22 88.5241 106.456L81.3074 101.247L81.3008 106.153L88.1549 110.347C88.5494 110.839 89.0957 111.156 89.6903 111.239C90.2849 111.321 90.8865 111.162 91.381 110.793C91.8755 110.423 92.2286 109.869 92.3734 109.234C92.5182 108.6 92.4447 107.929 92.1667 107.35Z" fill="#FFB8B8"/>
<path d="M51.4377 124.745C51.1221 124.745 50.8145 124.636 50.5586 124.435C50.3028 124.233 50.1118 123.948 50.0127 123.621L43.6275 108.885C43.3656 108.022 43.2322 107.118 43.2324 106.208L45.1521 87.0545C45.1521 85.9821 45.5271 84.9501 46.2008 84.1691C46.8745 83.3882 47.796 82.9173 48.7771 82.8524C49.7583 82.7876 50.7251 83.1337 51.4803 83.8202C52.2354 84.5067 52.722 85.4818 52.8405 86.5463L49.9035 108.409L54.5904 121.827C54.6645 122.184 54.6267 122.558 54.4829 122.888C54.3391 123.219 54.0977 123.487 53.7974 123.651L52.1087 124.572C51.9004 124.686 51.6706 124.745 51.4377 124.745Z" fill="#CCCCCC"/>
<path d="M85.5393 109.284C85.3043 109.284 85.0724 109.224 84.8627 109.108L72.1645 102.111C71.4201 101.701 70.7407 101.163 70.1524 100.519L57.7584 86.9534C57.0645 86.1939 56.6625 85.1741 56.6344 84.1021C56.6063 83.0302 56.9542 81.987 57.6072 81.1855C58.2602 80.3839 59.1689 79.8845 60.1479 79.7891C61.1269 79.6938 62.1024 80.0097 62.8752 80.6723L76.3012 96.9397L86.9437 104.312C87.2272 104.508 87.4423 104.802 87.5545 105.147C87.6666 105.491 87.6693 105.868 87.5622 106.214L86.9623 108.168C86.8622 108.493 86.671 108.776 86.4157 108.976C86.1604 109.176 85.8539 109.284 85.5393 109.284Z" fill="#CCCCCC"/>
<path d="M44.1914 63.9473C45.5263 65.8525 47.4451 67.1698 49.597 67.6583C51.7782 68.1501 54.0484 67.7952 56.0153 66.6551C57.5979 65.7221 58.8644 64.3219 60.1049 62.9433C60.6226 62.368 61.174 61.7045 61.1479 60.9196C61.1076 59.7036 59.7676 59.0388 58.6175 58.7736C54.8425 57.9144 50.9146 58.3963 47.4088 60.1488C45.8474 60.9401 44.2207 62.3716 44.4551 64.1511" fill="#2F2E41"/>
<path d="M250.56 66.1289H96.3435C94.9015 66.1311 93.5192 66.7571 92.4996 67.8694C91.48 68.9818 90.9063 70.4899 90.9043 72.063V136.989C90.9063 138.562 91.48 140.07 92.4996 141.183C93.5192 142.295 94.9015 142.921 96.3435 142.923H250.56C252.002 142.921 253.384 142.295 254.404 141.183C255.423 140.07 255.997 138.562 255.999 136.989V72.063C255.997 70.4899 255.423 68.9818 254.404 67.8694C253.384 66.757 252.002 66.1311 250.56 66.1289ZM255.359 136.989C255.358 138.377 254.852 139.708 253.952 140.69C253.052 141.671 251.832 142.224 250.56 142.225H96.3435C95.0711 142.224 93.8513 141.671 92.9516 140.69C92.0519 139.708 91.5457 138.377 91.5442 136.989V72.063C91.5457 70.6749 92.0519 69.3441 92.9516 68.3625C93.8513 67.3809 95.0711 66.8287 96.3435 66.827H250.56C251.832 66.8287 253.052 67.3809 253.952 68.3625C254.852 69.3441 255.358 70.6749 255.359 72.063V136.989Z" fill="#3F3D56"/>
<path d="M124.344 124.772C120.674 124.772 117.086 123.585 114.034 121.36C110.983 119.135 108.604 115.973 107.2 112.274C105.795 108.574 105.428 104.504 106.144 100.576C106.86 96.649 108.627 93.0416 111.222 90.2101C113.818 87.3787 117.124 85.4505 120.724 84.6693C124.324 83.8881 128.055 84.289 131.446 85.8214C134.837 87.3538 137.735 89.9487 139.774 93.2781C141.813 96.6075 142.901 100.522 142.901 104.526C142.896 109.894 140.939 115.04 137.46 118.835C133.981 122.631 129.264 124.766 124.344 124.772ZM124.344 84.9784C120.801 84.9784 117.336 86.1249 114.39 88.2728C111.444 90.4207 109.147 93.4737 107.791 97.0455C106.435 100.617 106.08 104.548 106.771 108.34C107.463 112.132 109.169 115.615 111.675 118.348C114.181 121.082 117.373 122.944 120.849 123.698C124.324 124.452 127.927 124.065 131.201 122.586C134.475 121.106 137.273 118.601 139.242 115.386C141.211 112.172 142.262 108.392 142.262 104.526C142.256 99.3435 140.367 94.3749 137.008 90.7103C133.649 87.0457 129.095 84.9843 124.344 84.9784Z" fill="#3F3D56"/>
<path d="M236.799 91.6104H162.89C161.857 91.611 160.864 92.0479 160.12 92.8294C159.376 93.6109 158.938 94.6764 158.897 95.8026C158.892 95.8594 158.89 95.9166 158.891 95.9737C158.892 97.1304 159.314 98.2393 160.064 99.0572C160.814 99.8751 161.83 100.335 162.89 100.337H236.799C237.86 100.337 238.877 99.8773 239.627 99.059C240.377 98.2407 240.798 97.1309 240.798 95.9737C240.798 94.8164 240.377 93.7066 239.627 92.8883C238.877 92.0701 237.86 91.6104 236.799 91.6104Z" fill="#1C9352"/>
<path d="M236.799 108.715H162.89C161.857 108.715 160.864 109.152 160.12 109.934C159.376 110.715 158.938 111.781 158.897 112.907C158.892 112.964 158.89 113.021 158.891 113.078C158.892 114.235 159.314 115.344 160.064 116.162C160.814 116.98 161.83 117.44 162.89 117.441H236.799C237.86 117.441 238.877 116.982 239.627 116.163C240.377 115.345 240.798 114.235 240.798 113.078C240.798 111.921 240.377 110.811 239.627 109.993C238.877 109.175 237.86 108.715 236.799 108.715Z" fill="#1C9352"/>
<path d="M122.275 113.372C121.757 113.373 121.253 113.19 120.838 112.852L120.813 112.831L115.404 108.313C115.154 108.103 114.944 107.842 114.786 107.544C114.628 107.246 114.525 106.917 114.484 106.576C114.442 106.235 114.463 105.888 114.544 105.555C114.626 105.223 114.766 104.911 114.958 104.638C115.15 104.364 115.39 104.135 115.663 103.963C115.936 103.79 116.238 103.678 116.55 103.633C116.863 103.588 117.181 103.61 117.486 103.699C117.791 103.788 118.077 103.942 118.327 104.151L121.83 107.082L130.109 95.3027C130.301 95.0295 130.54 94.8003 130.814 94.628C131.087 94.4558 131.388 94.344 131.701 94.2989C132.014 94.2539 132.332 94.2765 132.637 94.3655C132.942 94.4545 133.227 94.6081 133.478 94.8176L133.426 94.8938L133.479 94.8187C133.984 95.2422 134.315 95.867 134.398 96.5561C134.482 97.2451 134.311 97.9421 133.924 98.4942L124.186 112.349C123.961 112.668 123.671 112.927 123.34 113.104C123.008 113.281 122.644 113.373 122.275 113.372Z" fill="#1C9352"/>
<path d="M122.221 189H0.319951C0.235095 189 0.153714 188.963 0.0937113 188.898C0.0337088 188.832 0 188.743 0 188.651C0 188.558 0.0337088 188.469 0.0937113 188.404C0.153714 188.339 0.235095 188.302 0.319951 188.302H122.221C122.306 188.302 122.388 188.339 122.448 188.404C122.508 188.469 122.541 188.558 122.541 188.651C122.541 188.743 122.508 188.832 122.448 188.898C122.388 188.963 122.306 189 122.221 189Z" fill="#3F3D56"/>
<path d="M218.61 50.4032C211.926 49.4002 205.138 49.5672 198.502 50.8978C191.886 52.2174 185.498 54.6539 179.57 58.1194C176.238 60.0726 173.076 62.352 170.122 64.9295C169.639 65.35 170.323 66.0867 170.801 65.6699C175.984 61.1718 181.794 57.6086 188.01 55.1157C194.177 52.6273 200.659 51.1926 207.228 50.8623C210.944 50.6761 214.669 50.8604 218.354 51.413C218.477 51.445 218.606 51.4251 218.716 51.3572C218.825 51.2893 218.907 51.1785 218.945 51.0473C218.978 50.9134 218.961 50.7707 218.898 50.6501C218.836 50.5296 218.732 50.4408 218.61 50.4032Z" fill="white"/>
</g>
<defs>
<clipPath id="clip0_150_4819">
<rect width="256" height="189" fill="white"/>
</clipPath>
</defs>
</svg>
