<svg width="275" height="171" viewBox="0 0 275 171" fill="none" xmlns="http://www.w3.org/2000/svg">
<g clip-path="url(#clip0_173_1816)">
<path d="M115.791 0L115.664 0.466602L219.947 0.5703C249.966 0.5703 274.301 20.4453 274.301 44.9626V97.2364H274.999V6.47007C274.999 2.89675 271.453 0 267.077 0H115.791Z" fill="#E6E6E6"/>
<path d="M230.648 22.2584C232.279 22.2584 233.6 21.1547 233.6 19.7933C233.6 18.4318 232.279 17.3281 230.648 17.3281C229.017 17.3281 227.695 18.4318 227.695 19.7933C227.695 21.1547 229.017 22.2584 230.648 22.2584Z" fill="#3F3D56"/>
<path d="M220.449 22.2584C222.079 22.2584 223.401 21.1547 223.401 19.7933C223.401 18.4318 222.079 17.3281 220.449 17.3281C218.818 17.3281 217.496 18.4318 217.496 19.7933C217.496 21.1547 218.818 22.2584 220.449 22.2584Z" fill="#3F3D56"/>
<path d="M210.247 22.2584C211.878 22.2584 213.2 21.1547 213.2 19.7933C213.2 18.4318 211.878 17.3281 210.247 17.3281C208.617 17.3281 207.295 18.4318 207.295 19.7933C207.295 21.1547 208.617 22.2584 210.247 22.2584Z" fill="#3F3D56"/>
<path d="M186.088 57.0776H144.794C143.377 57.0776 142.225 56.1362 142.225 54.9792C142.225 53.8222 143.377 52.8809 144.794 52.8809H186.088C187.505 52.8809 188.657 53.8222 188.657 54.9792C188.657 56.1362 187.505 57.0776 186.088 57.0776Z" fill="#E6E6E6"/>
<path d="M218.314 64.1801H144.794C143.377 64.1801 142.225 63.2388 142.225 62.0818C142.225 60.9248 143.377 59.9834 144.794 59.9834H218.314C219.731 59.9834 220.883 60.9248 220.883 62.0818C220.883 63.2388 219.731 64.1801 218.314 64.1801Z" fill="#E6E6E6"/>
<path d="M232.225 75.2122H130.88C128.692 75.2122 126.912 73.7584 126.912 71.9714V45.0904C126.912 43.3035 128.692 41.8496 130.88 41.8496H232.225C234.413 41.8496 236.193 43.3035 236.193 45.0904V71.9714C236.193 73.7584 234.413 75.2122 232.225 75.2122ZM130.88 42.4199C129.077 42.4199 127.61 43.6179 127.61 45.0904V71.9714C127.61 73.444 129.077 74.6419 130.88 74.6419H232.225C234.028 74.6419 235.495 73.444 235.495 71.9714V45.0904C235.495 43.6179 234.028 42.4199 232.225 42.4199H130.88Z" fill="#3F3D56"/>
<path d="M234.15 82.4089C238.971 82.4089 242.879 79.2172 242.879 75.2801C242.879 71.343 238.971 68.1514 234.15 68.1514C229.33 68.1514 225.422 71.343 225.422 75.2801C225.422 79.2172 229.33 82.4089 234.15 82.4089Z" fill="#159768"/>
<path d="M236.288 72.9938C235.59 72.3059 234.424 71.9001 233.341 72.1586C232.35 72.3954 231.524 73.1626 231.616 74.0379C231.659 74.4442 231.862 74.8345 232.211 75.1294C232.604 75.4625 233.106 75.5775 233.656 75.6154C234.243 75.6559 234.747 75.7273 235.138 76.1224C235.478 76.4661 235.585 76.9219 235.39 77.3375C234.927 78.3252 233.289 78.4401 232.604 77.552C232.336 77.2035 231.656 77.5251 231.926 77.8759C232.484 78.6 233.619 78.9986 234.64 78.7279C235.632 78.4646 236.361 77.6243 236.268 76.7649C236.172 75.8725 235.303 75.1371 234.222 75.0161C233.652 74.9524 233.056 75.0033 232.671 74.5871C232.37 74.2619 232.305 73.8122 232.533 73.4477C232.811 73.0029 233.415 72.7232 234.019 72.7223C234.706 72.7212 235.306 73.0268 235.733 73.4475C236.056 73.7656 236.609 73.3096 236.288 72.9938Z" fill="white"/>
<path d="M233.233 70.8694L232.856 79.8428C232.844 80.1181 233.368 80.1177 233.379 79.8428L233.757 70.8694C233.768 70.5941 233.245 70.5945 233.233 70.8694Z" fill="white"/>
<path d="M234.454 70.8694L234.076 79.8428C234.065 80.1181 234.588 80.1177 234.6 79.8428L234.978 70.8694C234.989 70.5941 234.465 70.5945 234.454 70.8694Z" fill="white"/>
<path d="M33.0652 167.295L36.7737 167.295L38.5379 155.612L33.0645 155.613L33.0652 167.295Z" fill="#A0616A"/>
<path d="M32.9338 170.455L44.338 170.455V170.337C44.3378 168.335 42.3506 166.712 39.8991 166.712L37.8158 165.421L33.9291 166.712L32.9336 166.712L32.9338 170.455Z" fill="#2F2E41"/>
<path d="M55.7293 167.295L59.4378 167.295L61.2019 155.612L55.7285 155.613L55.7293 167.295Z" fill="#A0616A"/>
<path d="M55.5978 170.455L67.002 170.455V170.337C67.0019 168.335 65.0146 166.712 62.5632 166.712L60.4798 165.421L56.5932 166.712L55.5977 166.712L55.5978 170.455Z" fill="#2F2E41"/>
<path d="M29.7892 92.9732L63.7036 92.2031L63.4864 107.83L61.6971 126.096C61.6971 126.096 65.872 139.491 62.2935 152.887L61.9953 163.116L52.4528 162.629C52.4528 162.629 50.8126 142.536 52.9001 134.986L46.6378 107.708L40.6737 134.255C40.6737 134.255 41.5683 149.599 39.1826 155.687V161.426H32.4354C32.4354 161.426 25.167 141.318 30.5347 131.089L29.7892 92.9732Z" fill="#2F2E41"/>
<path d="M54.1819 47.5631C54.1819 47.5631 53.2667 45.6877 52.5834 44.8506C47.8003 44.8506 47.1925 45.1189 43.0171 44.8506L31.427 95.6717C31.427 95.6717 25.055 100.057 32.052 100.057C39.0489 100.057 49.1376 98.4626 51.9038 99.6586C54.6701 100.855 63.4569 98.9942 63.4569 98.9942L54.1819 47.5631Z" fill="#1C9352"/>
<path d="M43.2085 44.75L38.9178 48.4783L36.0841 48.5089C33.4632 48.5372 31.3626 50.2892 31.383 52.4299L32.2715 73.7865C32.2715 73.7865 24.2417 94.1035 29.6115 94.9009L28.6351 97.9575L38.9358 103.14C38.9358 103.14 42.0598 89.4923 42.548 86.4357C43.0361 83.379 45.4622 66.1532 45.4622 66.1532C45.4622 66.1532 44.9888 51.983 44.6633 50.6702L43.2085 44.75Z" fill="#2F2E41"/>
<path d="M52.7169 44.9053L50.6016 53.8094L55.9713 77.3321C55.9713 77.3321 54.6696 99.1272 58.7376 101.254L65.1485 99.8981L64.6603 95.6454C64.6603 95.6454 65.2464 94.6087 64.9209 90.6218C64.5955 86.6349 62.6777 79.367 62.6777 79.367L65.518 52.8791C65.518 52.8791 58.4121 47.4303 55.3204 48.0948L52.7169 44.9053Z" fill="#2F2E41"/>
<path d="M17.6535 94.9686L18.3151 87.7184L23.439 87.4492L22.4055 95.0942C22.5712 95.2863 22.7059 95.5009 22.8005 95.7356C23.3149 97.0122 22.4648 98.3877 20.9017 98.8079C19.3386 99.228 17.6544 98.5337 17.14 97.2571C16.8119 96.4429 17.0406 95.5897 17.6535 94.9686Z" fill="#A0616A"/>
<path d="M37.3837 48.5967L34.6844 48.6332C32.6892 48.6602 30.9259 49.6998 30.2666 51.2381L20.1513 74.8367L19.1014 79.2371C19.1014 79.2371 14.249 88.7397 16.0683 90.1771L16.9357 92.8237L23.3699 92.7367L23.326 90.5683C23.326 90.5683 25.2907 90.4177 25.2814 88.5073C25.2814 88.5073 30.3733 81.3442 29.0259 79.1029L32.4948 73.6064L37.3837 48.5967Z" fill="#2F2E41"/>
<path d="M100.583 85.7615L94.0527 80.8203L90.0762 83.473L97.2075 88.4966C97.2464 88.7293 97.3266 88.9614 97.4531 89.1859C98.1409 90.4069 99.9103 90.9413 101.405 90.3796C102.9 89.8179 103.555 88.3727 102.867 87.1518C102.428 86.3731 101.549 85.8755 100.583 85.7615Z" fill="#A0616A"/>
<path d="M61.3944 50.248L58.1191 60.5811L69.589 73.4551L73.3235 76.7409C73.3235 76.7409 89.4075 87.0034 91.9015 86.6499L95.0308 87.6371L98.736 83.34L96.565 82.0913C96.565 82.0913 97.5737 80.7061 95.6783 79.5865C95.6783 79.5865 82.0499 70.5444 79.0387 70.1128L75.6453 64.5851L65.2761 52.7875L61.3944 50.248Z" fill="#2F2E41"/>
<path d="M53.5906 42.6187C53.5458 42.648 53.504 42.6699 53.4592 42.6919C53.1128 42.8797 52.7515 43.048 52.3722 43.1919C52.3662 43.1967 52.3573 43.1992 52.3483 43.2016C51.6644 43.465 50.9268 43.6626 50.1474 43.7797C49.35 43.8992 48.5586 43.9309 47.7882 43.8797C43.8193 43.6236 40.4029 41.226 39.6444 37.8773C39.3906 36.7602 39.4622 35.6577 39.7997 34.6309C40.6747 31.9773 43.3415 29.8358 46.8713 29.3017C51.766 28.5627 56.4665 31.2041 57.3713 35.2017C58.0403 38.1577 56.4456 41.0285 53.5906 42.6187Z" fill="#A0616A"/>
<path d="M43.017 42.4393L43.5608 40.3885C43.5608 40.3885 42.0807 39.3365 43.5608 38.3581L44.3662 37.9308H45.596L46.3901 34.6249L51.4498 34.3494C51.4498 34.3494 56.5095 33.5229 57.1842 32.1455C57.1842 32.1455 55.4976 31.87 55.8349 30.768C55.8349 30.768 51.7871 26.6357 48.0767 27.7376C44.3662 28.8396 43.017 29.9416 43.017 29.9416C43.017 29.9416 36.9453 29.1151 36.9453 35.1759C36.9453 41.2367 43.017 42.4393 43.017 42.4393Z" fill="#2F2E41"/>
<path d="M98.4772 95.3499H88.2835C87.1784 95.3499 86.2793 94.6156 86.2793 93.713V77.8049C86.2793 76.9023 87.1784 76.168 88.2835 76.168H98.4772C99.5823 76.168 100.481 76.9023 100.481 77.8049V93.713C100.481 94.6156 99.5823 95.3499 98.4772 95.3499Z" fill="#3F3D56"/>
<path d="M100.481 82.0195C100.435 82.0195 100.396 82.0506 100.396 82.0888V84.3047C100.396 84.3429 100.435 84.374 100.481 84.374C100.528 84.374 100.566 84.3429 100.566 84.3047V82.0888C100.566 82.0506 100.528 82.0195 100.481 82.0195Z" fill="#3F3D56"/>
<path d="M100.291 77.8045V93.7123C100.291 94.4979 99.5426 95.1406 98.5959 95.1904C98.5819 95.1911 98.5675 95.1918 98.5531 95.1922C98.5281 95.1932 98.5031 95.1935 98.4776 95.1935C98.4776 95.1935 98.3844 95.188 98.214 95.1776C98.0418 95.1672 97.7913 95.1516 97.4788 95.1312C97.3851 95.1253 97.2864 95.1187 97.1821 95.1118C96.9743 95.098 96.7463 95.0827 96.5016 95.0654C96.4041 95.0588 96.3032 95.0516 96.2002 95.0443C95.6737 95.0072 95.084 94.964 94.462 94.9148C94.3569 94.9068 94.2509 94.8985 94.1441 94.8899C94.1161 94.8875 94.0877 94.8854 94.0593 94.8829C93.6159 94.8473 93.1601 94.8088 92.7027 94.768C92.6743 94.7656 92.6459 94.7631 92.6179 94.7607C91.8298 94.6897 91.0387 94.6125 90.2985 94.5294C89.7291 94.4657 89.1899 94.3986 88.7057 94.329C88.548 94.3061 88.3963 94.2833 88.2513 94.2601C88.2229 94.2556 88.1945 94.2511 88.1665 94.2462C87.1418 94.0786 86.4707 93.8979 86.4707 93.7123V77.8045C86.4707 76.9863 87.2826 76.3232 88.2843 76.3232H89.3671C89.5401 76.3232 89.6791 76.4333 89.6939 76.5743C89.6952 76.5836 89.6965 76.593 89.6986 76.6023C89.73 76.7439 89.889 76.8426 90.0653 76.8426H96.6967C96.873 76.8426 97.032 76.7439 97.0634 76.6023C97.0655 76.593 97.0668 76.5836 97.068 76.5743C97.0829 76.4333 97.2219 76.3232 97.3949 76.3232H98.4776C99.4794 76.3232 100.291 76.9863 100.291 77.8045Z" fill="#1C9352"/>
<path d="M86.2371 80.3574C86.1904 80.3574 86.1523 80.3885 86.1523 80.4267V80.9807C86.1523 81.0189 86.1904 81.0499 86.2371 81.0499C86.2839 81.0499 86.3219 81.0189 86.3219 80.9807V80.4267C86.3219 80.3885 86.2839 80.3574 86.2371 80.3574Z" fill="#3F3D56"/>
<path d="M86.2371 82.0195C86.1904 82.0195 86.1523 82.0506 86.1523 82.0888V83.1621C86.1523 83.2003 86.1904 83.2314 86.2371 83.2314C86.2839 83.2314 86.3219 83.2003 86.3219 83.1621V82.0888C86.3219 82.0506 86.2839 82.0195 86.2371 82.0195Z" fill="#3F3D56"/>
<path d="M86.2371 83.543C86.1904 83.543 86.1523 83.574 86.1523 83.6122V84.6856C86.1523 84.7238 86.1904 84.7548 86.2371 84.7548C86.2839 84.7548 86.3219 84.7238 86.3219 84.6856V83.6122C86.3219 83.574 86.2839 83.543 86.2371 83.543Z" fill="#3F3D56"/>
<path d="M89.2466 76.5664H87.8052C87.7467 76.5664 87.6992 76.6052 87.6992 76.653C87.6992 76.7008 87.7467 76.7395 87.8052 76.7395H89.2466C89.3052 76.7395 89.3526 76.7008 89.3526 76.653C89.3526 76.6052 89.3052 76.5664 89.2466 76.5664Z" fill="#3F3D56"/>
<path d="M97.6618 76.7389C97.7554 76.7389 97.8313 76.6769 97.8313 76.6004C97.8313 76.5239 97.7554 76.4619 97.6618 76.4619C97.5681 76.4619 97.4922 76.5239 97.4922 76.6004C97.4922 76.6769 97.5681 76.7389 97.6618 76.7389Z" fill="#3F3D56"/>
<path d="M98.1286 76.7389C98.2222 76.7389 98.2981 76.6769 98.2981 76.6004C98.2981 76.5239 98.2222 76.4619 98.1286 76.4619C98.0349 76.4619 97.959 76.5239 97.959 76.6004C97.959 76.6769 98.0349 76.7389 98.1286 76.7389Z" fill="#3F3D56"/>
<path d="M98.5954 76.7389C98.689 76.7389 98.7649 76.6769 98.7649 76.6004C98.7649 76.5239 98.689 76.4619 98.5954 76.4619C98.5017 76.4619 98.4258 76.5239 98.4258 76.6004C98.4258 76.6769 98.5017 76.7389 98.5954 76.7389Z" fill="#3F3D56"/>
<path d="M93.604 90.2942C96.5685 90.2942 98.9717 88.3314 98.9717 85.9103C98.9717 83.4891 96.5685 81.5264 93.604 81.5264C90.6395 81.5264 88.2363 83.4891 88.2363 85.9103C88.2363 88.3314 90.6395 90.2942 93.604 90.2942Z" fill="white"/>
<path d="M94.9184 84.5043C94.489 84.0813 93.7722 83.8317 93.1062 83.9907C92.4962 84.1363 91.9885 84.6081 92.0454 85.1464C92.0718 85.3962 92.1964 85.6362 92.4108 85.8176C92.6528 86.0224 92.9613 86.0932 93.2997 86.1165C93.6608 86.1414 93.9707 86.1853 94.2112 86.4283C94.4204 86.6396 94.4857 86.9199 94.3659 87.1755C94.0811 87.7828 93.0739 87.8536 92.6529 87.3074C92.4876 87.0931 92.0694 87.2909 92.2357 87.5066C92.5791 87.9519 93.2771 88.197 93.9045 88.0305C94.5147 87.8686 94.9628 87.3518 94.9061 86.8233C94.8471 86.2745 94.3122 85.8223 93.6474 85.7479C93.2972 85.7087 92.9308 85.74 92.6939 85.4841C92.5088 85.2841 92.4691 85.0076 92.609 84.7834C92.7798 84.5099 93.1512 84.3379 93.5231 84.3373C93.9453 84.3367 94.3141 84.5246 94.5768 84.7833C94.7753 84.9789 95.1155 84.6985 94.9184 84.5043Z" fill="#6C63FF"/>
<path d="M93.0389 83.1982L92.8068 88.7164C92.7996 88.8857 93.1217 88.8855 93.1288 88.7164L93.361 83.1982C93.3681 83.0289 93.046 83.0291 93.0389 83.1982Z" fill="#6C63FF"/>
<path d="M93.7909 83.1982L93.5587 88.7164C93.5516 88.8857 93.8737 88.8855 93.8808 88.7164L94.1129 83.1982C94.12 83.0289 93.798 83.0291 93.7909 83.1982Z" fill="#6C63FF"/>
<path d="M18.5378 166.163C17.832 166.199 17.4419 165.483 17.9759 165.066L18.029 164.893C18.022 164.879 18.015 164.865 18.0079 164.852C17.2941 163.462 14.875 163.471 14.1672 164.863C13.5391 166.099 12.7393 167.337 12.5424 168.643C12.4541 169.22 12.4938 169.807 12.6505 170.373C11.1786 167.747 10.4041 164.88 10.4041 161.996C10.4041 161.272 10.4526 160.547 10.5519 159.825C10.6336 159.234 10.7461 158.646 10.8918 158.064C11.6796 154.917 13.3854 151.92 15.8458 149.417C17.0286 148.889 18.015 148.063 18.6108 147.074C18.8249 146.717 18.9926 146.333 19.072 145.942C18.9374 145.956 18.5645 144.282 18.666 144.179C18.4784 143.947 18.1427 143.831 17.9378 143.604C16.9189 142.476 15.515 142.673 14.7822 144.206C13.2166 144.852 13.2015 145.922 14.1621 146.951C14.7732 147.606 14.8572 148.492 15.3934 149.193C15.3383 149.251 15.2809 149.307 15.2257 149.364C14.2141 150.424 13.3391 151.563 12.6015 152.76C12.8099 151.43 12.5022 149.828 11.9775 148.795C11.3802 147.618 10.2607 146.627 9.27482 145.61C8.09064 144.388 5.66238 144.921 5.45375 146.47C5.45173 146.485 5.44977 146.5 5.44784 146.515C5.59427 146.582 5.73773 146.654 5.87786 146.73C6.67716 147.162 6.40092 148.174 5.45384 148.293L5.4324 148.296C5.48536 148.726 5.57584 149.153 5.70823 149.573C4.44349 153.568 7.17396 155.023 11.0727 155.088C11.1588 155.124 11.2426 155.16 11.3287 155.195C10.9337 156.103 10.6181 157.035 10.3842 157.979C10.1746 158.814 10.0289 159.657 9.94731 160.504C9.84578 161.573 9.85462 162.647 9.96496 163.714L9.95834 163.676C9.6781 162.501 8.89692 161.403 7.76266 160.643C6.07297 159.509 3.68576 159.092 1.86288 158.181C0.985398 157.742 -0.139028 158.309 0.0141153 159.14L0.0215702 159.179C0.292991 159.27 0.557787 159.374 0.813768 159.491C0.960201 159.559 1.10366 159.63 1.24379 159.706C2.04309 160.138 1.76685 161.15 0.819771 161.269L0.798308 161.272C0.782866 161.274 0.76962 161.275 0.754197 161.277C1.21981 162.18 1.86857 163.018 2.68063 163.741C3.47144 167.228 6.86796 167.559 10.5012 166.543H10.5034C10.9006 167.956 11.481 169.337 12.2268 170.653H18.3835C18.4056 170.597 18.4255 170.539 18.4453 170.483C17.876 170.512 17.3022 170.485 16.7417 170.4C17.1985 169.943 17.6553 169.481 18.1121 169.023C18.1231 169.014 18.132 169.005 18.1408 168.996C18.3725 168.762 18.6064 168.53 18.8381 168.295L18.8382 168.295C18.8527 167.576 18.747 166.859 18.5378 166.163Z" fill="#F2F2F2"/>
<path d="M87.3997 170.668C87.3997 170.852 87.2186 171 86.9931 171H0.455397C0.229915 171 0.0488281 170.852 0.0488281 170.668C0.0488281 170.484 0.229915 170.336 0.455397 170.336H86.9931C87.2186 170.336 87.3997 170.484 87.3997 170.668Z" fill="#CCCCCC"/>
</g>
<defs>
<clipPath id="clip0_173_1816">
<rect width="275" height="171" fill="white"/>
</clipPath>
</defs>
</svg>
