<svg width="395" height="279" viewBox="0 0 395 279" fill="none" xmlns="http://www.w3.org/2000/svg">
<g clip-path="url(#clip0_154_3228)">
<path d="M323.808 3.20977C323.8 3.23568 323.792 3.25844 323.785 3.28435C323.767 3.33403 323.752 3.38482 323.741 3.43638C323.646 3.76711 323.594 4.10823 323.587 4.45165C323.582 4.59817 323.586 4.74483 323.598 4.89094C323.613 5.0784 323.64 5.26468 323.681 5.44849C323.723 5.65311 323.782 5.85413 323.857 6.04971C323.891 6.14264 323.929 6.23385 323.973 6.32298C324.251 6.93126 324.669 7.46831 325.196 7.89189C325.722 8.31548 326.342 8.61407 327.007 8.7642L327.01 8.76395C327.075 8.7804 327.141 8.79347 327.208 8.80312C327.578 8.86887 327.956 8.8877 328.331 8.85915L328.338 8.85867C329.253 8.79089 330.124 8.44388 330.826 7.86669C331.257 7.51814 331.304 7.14998 331.841 7.31332C333.554 7.83437 334.699 5.07769 333.843 3.56771C333.844 3.5108 333.841 3.45387 333.836 3.3972C333.754 2.3425 332.127 2.07363 331.179 1.51382L331.174 1.53249C331.13 1.69605 331.034 1.84201 330.901 1.94997C330.767 2.05792 330.603 2.12247 330.43 2.13457C330.257 2.14668 330.085 2.10575 329.937 2.01749C329.789 1.92924 329.673 1.79808 329.605 1.64236C329.432 1.2345 329.275 0.821057 329.133 0.402034C327.315 -0.8764 322.458 1.12111 323.808 3.20977Z" fill="#2F2E41"/>
<path d="M312.41 12.7812C312.162 13.3444 304.53 13.284 304.181 13.7854C301.486 17.6566 311.201 34.1273 308.506 38.0035L308.13 38.4403C309.009 38.0448 309.854 37.5796 310.655 37.0495C310.727 35.4629 310.799 33.8713 310.877 32.2847C311.684 33.2928 312.335 34.4109 312.81 35.6035C313.438 35.1717 313.953 34.3713 316.642 32.7968C317.731 31.6292 318.986 30.6205 320.369 29.8017L312.41 12.7812Z" fill="#2F2E41"/>
<path d="M317.95 44.5071C317.108 43.9715 316.147 43.6397 315.147 43.5393C314.147 43.4388 313.137 43.5725 312.201 43.9294C311.264 44.2863 310.429 44.856 309.763 45.5913C309.098 46.3266 308.621 47.2063 308.373 48.1573L296.775 77.6585L276.84 66.6096C276.752 65.3396 276.255 64.1293 275.419 63.1522C274.584 62.1752 273.452 61.4816 272.188 61.171C270.923 60.8604 269.591 60.9487 268.381 61.4232C267.171 61.8977 266.146 62.7341 265.453 63.8124C264.76 64.8906 264.435 66.1554 264.524 67.4253C264.613 68.6952 265.112 69.905 265.949 70.8811C266.786 71.8572 267.918 72.5496 269.182 72.8588C270.447 73.168 271.78 73.0783 272.989 72.6024C277.187 76.9766 295.388 94.911 302.924 87.9036C309.257 82.0136 318.397 59.1859 320.598 51.303C320.95 50.0425 320.884 48.7053 320.408 47.484C319.932 46.2627 319.071 45.2204 317.95 44.5071Z" fill="#A0616A"/>
<path d="M227.493 64.2597C222.008 50.0632 220.719 35.5681 224.987 20.6776C224.937 19.7954 225.248 18.9301 225.851 18.2713C226.454 17.6125 227.3 17.2142 228.203 17.1637L261.919 15.3156C262.823 15.2671 263.709 15.5704 264.384 16.1592C265.059 16.7479 265.467 17.5739 265.519 18.4559L268.025 62.0381C268.075 62.9202 267.764 63.7856 267.161 64.4444C266.558 65.1031 265.712 65.5015 264.809 65.552L231.093 67.4001C230.189 67.4486 229.303 67.1452 228.628 66.5565C227.953 65.9678 227.545 65.1418 227.493 64.2597Z" fill="#E6E6E6"/>
<path d="M229.321 50.9542C225.52 44.0953 226.05 33.9446 227.71 22.9357C227.663 22.1095 227.954 21.299 228.519 20.6821C229.084 20.0651 229.876 19.6921 230.722 19.6448L259.698 18.0565C260.544 18.011 261.375 18.2951 262.007 18.8465C262.639 19.3978 263.021 20.1714 263.069 20.9975L265.3 59.7796C265.346 60.6058 265.055 61.4163 264.491 62.0332C263.926 62.6502 263.133 63.0232 262.287 63.0705L244.337 64.0544C240.567 64.2569 236.869 62.9914 234.054 60.5355C231.239 58.0796 229.537 54.6338 229.321 50.9542Z" fill="white"/>
<path d="M243.919 56.2273C245.568 56.2273 246.904 54.9224 246.904 53.3129C246.904 51.7033 245.568 50.3984 243.919 50.3984C242.27 50.3984 240.934 51.7033 240.934 53.3129C240.934 54.9224 242.27 56.2273 243.919 56.2273Z" fill="#1C9352"/>
<path d="M252.118 26.5873C251.207 25.105 249.098 24.9725 247.327 25.0113C245.502 24.973 243.679 25.1724 241.907 25.6042C240.159 26.1116 238.493 27.1499 237.649 28.7279C236.612 30.6675 236.977 33.0188 237.534 35.1379C238.606 39.2144 240.29 43.114 242.529 46.7107L243.824 47.5746C246.473 45.2156 248.611 42.3631 250.114 39.1849C251.617 36.0067 252.453 32.5671 252.573 29.0687C252.665 28.2162 252.507 27.3558 252.118 26.5873Z" fill="#1C9352"/>
<path d="M61.1584 176.657C50.1983 136.708 51.9638 91.932 61.1584 44.3387C61.1598 43.1602 61.64 42.0303 62.4936 41.197C63.3472 40.3637 64.5046 39.8949 65.7118 39.8936H201.197C202.404 39.8949 203.561 40.3637 204.415 41.197C205.268 42.0303 205.749 43.1602 205.75 44.3387V176.657C205.749 177.836 205.268 178.966 204.415 179.799C203.561 180.632 202.404 181.101 201.197 181.103H65.7118C64.5046 181.101 63.3472 180.632 62.4936 179.799C61.64 178.966 61.1598 177.836 61.1584 176.657Z" fill="#F2F2F2"/>
<path d="M62.0271 143.543C59.2442 111.49 59.9829 79.2383 64.2307 47.3387C64.2321 46.1602 64.7123 45.0303 65.5659 44.197C66.4195 43.3637 67.5769 42.8949 68.7841 42.8936H198.126C198.724 42.8936 199.316 43.0085 199.868 43.2319C200.421 43.4553 200.923 43.7827 201.345 44.1955C201.768 44.6083 202.104 45.0983 202.332 45.6376C202.561 46.1769 202.679 46.7549 202.679 47.3387V173.658C202.679 174.837 202.199 175.968 201.345 176.802C200.491 177.635 199.333 178.104 198.126 178.104H100.578C90.8845 178.109 81.5421 174.56 74.4022 168.159C67.2622 161.758 62.8455 152.973 62.0271 143.543Z" fill="white"/>
<path d="M144.842 67.8387H90.3877C90.2333 67.839 90.0803 67.8096 89.9376 67.7521C89.7948 67.6946 89.6651 67.6103 89.5558 67.5038C89.4465 67.3973 89.3597 67.2708 89.3006 67.1316C89.2414 66.9923 89.2109 66.843 89.2109 66.6923C89.2109 66.5415 89.2414 66.3923 89.3006 66.253C89.3597 66.1138 89.4465 65.9873 89.5558 65.8808C89.6651 65.7743 89.7948 65.6899 89.9376 65.6325C90.0803 65.575 90.2333 65.5456 90.3877 65.5459H144.842C145.153 65.5465 145.451 65.6676 145.671 65.8825C145.891 66.0974 146.014 66.3887 146.014 66.6923C146.014 66.9959 145.891 67.2872 145.671 67.5021C145.451 67.717 145.153 67.8381 144.842 67.8387Z" fill="#1C9352"/>
<path d="M172.408 78.3192H90.3877C90.2333 78.3195 90.0803 78.2901 89.9376 78.2326C89.7948 78.1751 89.6651 78.0907 89.5558 77.9842C89.4465 77.8778 89.3597 77.7513 89.3006 77.612C89.2414 77.4728 89.2109 77.3235 89.2109 77.1728C89.2109 77.022 89.2414 76.8727 89.3006 76.7335C89.3597 76.5943 89.4465 76.4678 89.5558 76.3613C89.6651 76.2548 89.7948 76.1704 89.9376 76.1129C90.0803 76.0555 90.2333 76.0261 90.3877 76.0264H172.408C172.719 76.027 173.017 76.1481 173.237 76.363C173.457 76.5779 173.58 76.8691 173.58 77.1728C173.58 77.4764 173.457 77.7676 173.237 77.9825C173.017 78.1975 172.719 78.3185 172.408 78.3192Z" fill="#F2F2F2"/>
<path d="M172.41 86.5059H90.3862C90.0745 86.5059 89.7756 86.6267 89.5552 86.8419C89.3348 87.0571 89.2109 87.3489 89.2109 87.6531C89.2109 87.9574 89.3348 88.2492 89.5552 88.4644C89.7756 88.6796 90.0745 88.8004 90.3862 88.8004H172.41C172.722 88.8004 173.021 88.6796 173.241 88.4644C173.461 88.2492 173.585 87.9574 173.585 87.6531C173.585 87.3489 173.461 87.0571 173.241 86.8419C173.021 86.6267 172.722 86.5059 172.41 86.5059Z" fill="#F2F2F2"/>
<path d="M172.408 99.2811H90.3872C90.0758 99.2811 89.7771 99.1603 89.5568 98.9453C89.3366 98.7303 89.2129 98.4387 89.2129 98.1347C89.2129 97.8306 89.3366 97.539 89.5568 97.324C89.7771 97.1091 90.0758 96.9883 90.3872 96.9883H172.408C172.719 96.9883 173.018 97.1091 173.238 97.324C173.458 97.539 173.582 97.8306 173.582 98.1347C173.582 98.4387 173.458 98.7303 173.238 98.9453C173.018 99.1603 172.719 99.2811 172.408 99.2811Z" fill="#F2F2F2"/>
<path d="M172.408 109.762H90.3877C90.2333 109.762 90.0803 109.732 89.9376 109.675C89.7948 109.617 89.6651 109.533 89.5558 109.427C89.4465 109.32 89.3597 109.194 89.3006 109.054C89.2414 108.915 89.2109 108.766 89.2109 108.615C89.2109 108.464 89.2414 108.315 89.3006 108.176C89.3597 108.037 89.4465 107.91 89.5558 107.804C89.6651 107.697 89.7948 107.613 89.9376 107.555C90.0803 107.498 90.2333 107.468 90.3877 107.469H172.408C172.719 107.469 173.017 107.59 173.237 107.805C173.457 108.02 173.58 108.312 173.58 108.615C173.58 108.919 173.457 109.21 173.237 109.425C173.017 109.64 172.719 109.761 172.408 109.762Z" fill="#F2F2F2"/>
<path d="M172.408 120.305H90.3877C90.2333 120.306 90.0803 120.276 89.9376 120.219C89.7948 120.161 89.6651 120.077 89.5558 119.971C89.4465 119.864 89.3597 119.738 89.3006 119.598C89.2414 119.459 89.2109 119.31 89.2109 119.159C89.2109 119.008 89.2414 118.859 89.3006 118.72C89.3597 118.581 89.4465 118.454 89.5558 118.348C89.6651 118.241 89.7948 118.157 89.9376 118.099C90.0803 118.042 90.2333 118.012 90.3877 118.013H172.408C172.719 118.013 173.017 118.134 173.237 118.349C173.457 118.564 173.58 118.855 173.58 119.159C173.58 119.463 173.457 119.754 173.237 119.969C173.017 120.184 172.719 120.305 172.408 120.305Z" fill="#F2F2F2"/>
<path d="M172.408 130.849H90.3877C90.2333 130.85 90.0803 130.82 89.9376 130.763C89.7948 130.705 89.6651 130.621 89.5558 130.515C89.4465 130.408 89.3597 130.282 89.3006 130.142C89.2414 130.003 89.2109 129.854 89.2109 129.703C89.2109 129.552 89.2414 129.403 89.3006 129.264C89.3597 129.125 89.4465 128.998 89.5558 128.892C89.6651 128.785 89.7948 128.701 89.9376 128.643C90.0803 128.586 90.2333 128.556 90.3877 128.557H172.408C172.719 128.557 173.017 128.678 173.237 128.893C173.457 129.108 173.58 129.399 173.58 129.703C173.58 130.007 173.457 130.298 173.237 130.513C173.017 130.728 172.719 130.849 172.408 130.849Z" fill="#F2F2F2"/>
<path d="M172.408 141.393H90.3877C90.2333 141.394 90.0803 141.364 89.9376 141.307C89.7948 141.249 89.6651 141.165 89.5558 141.058C89.4465 140.952 89.3597 140.825 89.3006 140.686C89.2414 140.547 89.2109 140.398 89.2109 140.247C89.2109 140.096 89.2414 139.947 89.3006 139.808C89.3597 139.668 89.4465 139.542 89.5558 139.436C89.6651 139.329 89.7948 139.245 89.9376 139.187C90.0803 139.13 90.2333 139.1 90.3877 139.101H172.408C172.719 139.101 173.017 139.222 173.237 139.437C173.457 139.652 173.58 139.943 173.58 140.247C173.58 140.551 173.457 140.842 173.237 141.057C173.017 141.272 172.719 141.393 172.408 141.393Z" fill="#F2F2F2"/>
<path d="M172.408 151.937H90.3877C90.2333 151.938 90.0803 151.908 89.9376 151.851C89.7948 151.793 89.6651 151.709 89.5558 151.602C89.4465 151.496 89.3597 151.369 89.3006 151.23C89.2414 151.091 89.2109 150.942 89.2109 150.791C89.2109 150.64 89.2414 150.491 89.3006 150.352C89.3597 150.212 89.4465 150.086 89.5558 149.979C89.6651 149.873 89.7948 149.789 89.9376 149.731C90.0803 149.674 90.2333 149.644 90.3877 149.645H172.408C172.719 149.645 173.017 149.766 173.237 149.981C173.457 150.196 173.58 150.487 173.58 150.791C173.58 151.095 173.457 151.386 173.237 151.601C173.017 151.816 172.719 151.937 172.408 151.937Z" fill="#F2F2F2"/>
<path d="M152.944 82.1248C149.34 80.868 144.674 81.3582 142.144 84.4219C139.879 87.1659 139.608 91.5351 142.49 93.9839C145.998 96.965 150.857 95.8684 154.688 94.1865C158.194 92.6475 162.053 90.1662 161.998 85.9553C161.99 84.8729 161.718 83.8082 161.204 82.8491C160.69 81.89 159.95 81.0642 159.044 80.4401C158.124 79.8335 157.072 79.4466 155.971 79.3105C154.87 79.1745 153.752 79.2932 152.707 79.657C151.782 79.987 152.181 81.4433 153.117 81.1095C153.87 80.8297 154.678 80.7175 155.482 80.781C156.285 80.8445 157.064 81.0821 157.762 81.4765C158.459 81.8709 159.058 82.4122 159.514 83.061C159.971 83.7098 160.273 84.4498 160.4 85.227C160.941 88.7232 157.881 90.9876 155.037 92.3671C151.917 93.8805 147.947 95.3285 144.607 93.5898C141.75 92.1025 141.228 88.7103 142.811 86.1052C144.775 82.8754 149.196 82.4131 152.534 83.5773C153.471 83.904 153.874 82.4491 152.944 82.1248Z" fill="#1C9352"/>
<path d="M104.598 103.213C100.995 101.956 96.3278 102.446 93.7988 105.51C91.5335 108.254 91.2618 112.623 94.144 115.072C97.6526 118.053 102.512 116.956 106.343 115.274C109.848 113.735 113.707 111.254 113.653 107.043C113.644 105.961 113.372 104.896 112.858 103.937C112.344 102.978 111.604 102.152 110.698 101.528C109.779 100.921 108.726 100.534 107.625 100.398C106.524 100.262 105.406 100.381 104.361 100.745C103.436 101.075 103.836 102.531 104.771 102.197C105.525 101.918 106.333 101.805 107.136 101.869C107.94 101.932 108.719 102.17 109.416 102.564C110.114 102.959 110.713 103.5 111.169 104.149C111.625 104.798 111.927 105.538 112.054 106.315C112.595 109.811 109.535 112.075 106.691 113.455C103.572 114.968 99.6011 116.416 96.2613 114.678C93.4044 113.19 92.8819 109.798 94.4658 107.193C96.4294 103.963 100.85 103.501 104.188 104.665C105.125 104.992 105.528 103.537 104.598 103.213Z" fill="#E6E6E6"/>
<path d="M152.43 145.388C148.827 144.132 144.16 144.622 141.631 147.686C139.366 150.43 139.094 154.799 141.976 157.248C145.485 160.229 150.344 159.132 154.175 157.45C157.68 155.911 161.539 153.43 161.485 149.219C161.476 148.137 161.204 147.072 160.69 146.113C160.176 145.154 159.436 144.328 158.53 143.704C157.611 143.097 156.558 142.71 155.457 142.574C154.356 142.438 153.238 142.557 152.193 142.921C151.268 143.251 151.668 144.707 152.603 144.373C153.357 144.093 154.165 143.981 154.968 144.045C155.772 144.108 156.551 144.346 157.248 144.74C157.946 145.135 158.545 145.676 159.001 146.325C159.457 146.973 159.759 147.713 159.886 148.491C160.427 151.987 157.367 154.251 154.523 155.631C151.404 157.144 147.433 158.592 144.093 156.853C141.236 155.366 140.714 151.974 142.298 149.369C144.261 146.139 148.682 145.677 152.02 146.841C152.957 147.168 153.36 145.713 152.43 145.388Z" fill="#E6E6E6"/>
<path d="M150.686 159.637C151.852 166.959 155.383 173.725 160.765 178.95C164.874 182.869 169.905 185.744 175.416 187.324C180.928 188.904 186.752 189.14 192.379 188.012C193.341 187.816 193.216 186.313 192.244 186.511C185.374 187.9 178.231 187.183 171.794 184.457C166.653 182.23 162.167 178.778 158.748 174.419C155.328 170.059 153.085 164.931 152.223 159.505C152.074 158.55 150.536 158.677 150.686 159.637Z" fill="#E6E6E6"/>
<path d="M194.706 197.703L206.183 191.251C206.28 191.184 206.36 191.097 206.417 190.996C206.474 190.894 206.507 190.781 206.513 190.666C206.518 190.55 206.497 190.435 206.449 190.329C206.402 190.223 206.33 190.128 206.24 190.054L194.424 181.703C193.624 181.138 192.627 182.288 193.433 182.857C197.371 185.641 201.31 188.424 205.249 191.208L205.306 190.011L193.83 196.462C192.968 196.947 193.851 198.183 194.706 197.703Z" fill="#E6E6E6"/>
<path d="M160.458 78.897C161.624 71.5753 165.155 64.8086 170.537 59.5836C174.646 55.665 179.676 52.7899 185.188 51.2102C190.7 49.6304 196.524 49.3943 202.151 50.5224C203.112 50.7184 202.987 52.221 202.016 52.0229C195.145 50.6339 188.003 51.3514 181.566 54.0774C176.425 56.3044 171.939 59.7559 168.519 64.1154C165.1 68.4749 162.856 73.6028 161.995 79.0288C161.845 79.9838 160.308 79.8575 160.458 78.897Z" fill="#3F3D56"/>
<path d="M204.478 40.8316L215.954 47.2835C216.051 47.3499 216.132 47.4371 216.189 47.5385C216.246 47.6399 216.279 47.7527 216.284 47.8683C216.29 47.9839 216.268 48.0993 216.221 48.2054C216.174 48.3116 216.102 48.4057 216.012 48.4807L204.196 56.8312C203.396 57.3964 202.398 56.2466 203.204 55.677L215.02 47.3265L215.078 48.5236L203.601 42.0717C202.739 41.5872 203.623 40.351 204.478 40.8316Z" fill="#3F3D56"/>
<path d="M99.2524 119.469C98.0864 126.791 94.5551 133.557 89.1733 138.782C85.0643 142.701 80.0336 145.576 74.522 147.156C69.0104 148.736 63.186 148.972 57.5592 147.844C56.5976 147.648 56.7225 146.145 57.6942 146.343C64.5648 147.732 71.7072 147.015 78.144 144.289C83.2851 142.062 87.7712 138.61 91.1907 134.251C94.6102 129.891 96.8537 124.763 97.7153 119.337C97.8645 118.382 99.4024 118.509 99.2524 119.469Z" fill="#E6E6E6"/>
<path d="M55.2311 157.536L43.7546 151.084C43.6575 151.017 43.5772 150.93 43.52 150.829C43.4628 150.727 43.4302 150.614 43.4247 150.499C43.4191 150.383 43.4408 150.268 43.4881 150.162C43.5353 150.056 43.6068 149.961 43.6972 149.887L55.5131 141.536C56.3128 140.971 57.3105 142.121 56.5045 142.69L44.6886 151.041L44.6312 149.844L56.1077 156.296C56.9695 156.78 56.0861 158.016 55.2311 157.536Z" fill="#E6E6E6"/>
<path d="M7.54153 173.407C1.79101 163.748 -0.949952 153.374 0.29578 142.054C0.149863 141.419 0.267812 140.754 0.62376 140.204C0.979709 139.654 1.54458 139.264 2.19446 139.12L26.4497 133.778C27.0999 133.636 27.7814 133.751 28.3448 134.099C28.9081 134.446 29.3073 134.997 29.4547 135.632L36.7004 166.985C36.8463 167.62 36.7284 168.285 36.3724 168.835C36.0165 169.385 35.4516 169.775 34.8017 169.919L10.5465 175.261C9.89631 175.403 9.21477 175.288 8.65143 174.94C8.08808 174.593 7.68892 174.041 7.54153 173.407Z" fill="#F2F2F2"/>
<path d="M7.21346 163.527C3.59929 158.997 2.72064 151.563 2.55526 143.371C2.41859 142.776 2.52905 142.153 2.86241 141.638C3.19577 141.123 3.7248 140.758 4.33343 140.623L25.1787 136.032C25.7877 135.899 26.426 136.007 26.9536 136.332C27.4812 136.658 27.855 137.174 27.9931 137.768L34.4408 165.668C34.5775 166.263 34.467 166.886 34.1336 167.401C33.8002 167.916 33.2712 168.281 32.6625 168.416L19.7493 171.26C17.0368 171.854 14.1937 171.374 11.8436 169.924C9.49347 168.474 7.82833 166.174 7.21346 163.527Z" fill="white"/>
<path d="M18.1084 165.653C19.3224 165.653 20.3066 164.692 20.3066 163.507C20.3066 162.322 19.3224 161.361 18.1084 161.361C16.8943 161.361 15.9102 162.322 15.9102 163.507C15.9102 164.692 16.8943 165.653 18.1084 165.653Z" fill="#F2F2F2"/>
<path d="M20.7352 143.126C19.8891 142.158 18.341 142.312 17.0603 142.55C15.7295 142.739 14.4304 143.1 13.1974 143.624C12.5816 143.889 12.0258 144.271 11.5619 144.747C11.098 145.223 10.7352 145.784 10.4945 146.397C9.98283 147.929 10.54 149.593 11.2083 151.066C12.4949 153.899 14.2027 156.532 16.2765 158.878L17.3244 159.352C18.9546 157.324 20.1528 154.999 20.8484 152.513C21.544 150.026 21.7231 147.429 21.375 144.874C21.3352 144.244 21.1134 143.638 20.7352 143.126Z" fill="#F2F2F2"/>
<path d="M18.1084 165.653C19.3224 165.653 20.3066 164.692 20.3066 163.507C20.3066 162.322 19.3224 161.361 18.1084 161.361C16.8943 161.361 15.9102 162.322 15.9102 163.507C15.9102 164.692 16.8943 165.653 18.1084 165.653Z" fill="#E6E6E6"/>
<path d="M20.7352 143.126C19.8891 142.158 18.341 142.312 17.0603 142.55C15.7295 142.739 14.4304 143.1 13.1974 143.624C12.5816 143.889 12.0258 144.271 11.5619 144.747C11.098 145.223 10.7352 145.784 10.4945 146.397C9.98283 147.929 10.54 149.593 11.2083 151.066C12.4949 153.899 14.2027 156.532 16.2765 158.878L17.3244 159.352C18.9546 157.324 20.1528 154.999 20.8484 152.513C21.544 150.026 21.7231 147.429 21.375 144.874C21.3352 144.244 21.1134 143.638 20.7352 143.126Z" fill="#E6E6E6"/>
<path d="M323.813 267.093L317.91 267.093L315.102 244.865H323.814L323.813 267.093Z" fill="#A0616A"/>
<path d="M305.996 275.597C305.999 276.242 306.262 276.861 306.729 277.318C307.197 277.775 307.829 278.033 308.491 278.037H319.603L319.948 277.341L321.519 274.174L322.128 277.341L322.263 278.037H326.454L326.395 277.336L325.277 264.252L323.815 264.164L317.498 263.799L315.946 263.706V267.613C314.768 268.836 305.527 273.458 305.996 275.597Z" fill="#2F2E41"/>
<path d="M300.762 262.623L295.191 264.53L285.006 244.462L293.228 241.647L300.762 262.623Z" fill="#A0616A"/>
<path d="M286.832 276.403C287.053 277.011 287.512 277.509 288.107 277.79C288.703 278.07 289.388 278.109 290.013 277.9L300.5 274.31L300.589 273.541L300.998 270.045L302.646 272.837L303.009 273.45L306.965 272.096L306.671 271.454L301.18 259.468L299.771 259.857L293.686 261.553L292.19 261.967L293.514 265.654C292.818 267.188 285.664 274.536 286.832 276.403Z" fill="#2F2E41"/>
<path d="M296.172 89.1396L299.832 105.289L326.595 107.652L329.054 93.5907L296.172 89.1396Z" fill="#A0616A"/>
<path d="M328.384 100.486L298.267 99.9951L297.619 108.578L274.363 176.825L270.23 193.604L282.075 255.906L302.134 255.894C302.134 255.894 301.718 239.526 300.917 238.848C300.116 238.169 298.445 238.858 299.684 235.362C300.923 231.867 301.838 230.738 300.372 229.333C298.906 227.928 297.134 229.107 298.222 225.76C299.309 222.414 308.186 176.723 308.186 176.723V258.64H328.824C328.824 258.64 333.144 254.787 331.156 252.78C329.167 250.774 327.553 250.38 329.167 247.622C330.781 244.865 334.283 245.56 331.321 242.061C328.969 239.282 334.597 162.634 337.01 131.246C337.662 122.763 334.888 114.367 329.281 107.855L328.384 100.486Z" fill="#2F2E41"/>
<path d="M312.877 36.6807L326.198 36.0107L332.386 45.5551C332.386 45.5551 344.027 47.4551 343.22 60.8472C342.413 74.2393 329.056 85.991 329.056 85.991L329.627 84.0799L328.635 86.8461L328.762 88.3993L330.115 90.0442L330.255 91.7453L329.056 94.4369L330.686 97.014L296.417 93.7728L295.164 89.3163L296.992 86.9233L295.971 83.8019L297.506 80.7997L298.306 80.1484C298.306 80.1484 289.549 67.3048 299.602 57.6312L303.637 50.9352L308.151 45.5581L312.877 36.6807Z" fill="#1C9352"/>
<path d="M316.193 31.0465C323.169 31.0465 328.825 25.5254 328.825 18.7147C328.825 11.904 323.169 6.38281 316.193 6.38281C309.216 6.38281 303.561 11.904 303.561 18.7147C303.561 25.5254 309.216 31.0465 316.193 31.0465Z" fill="#A0616A"/>
<path d="M325.786 36.4796C324.758 35.6405 324.042 34.4932 323.75 33.216C323.516 34.7667 323.577 36.3462 323.93 37.8754C323.246 38.3775 322.582 38.8545 321.955 39.2863C321.48 38.0937 320.828 36.9755 320.021 35.9674C319.944 37.5541 319.872 39.1457 319.8 40.7323C318.998 41.2624 318.154 41.7275 317.274 42.1231L317.65 41.6863C320.345 37.8101 313.371 30.6754 316.066 26.8042C316.822 25.7197 313.407 17.149 310.804 16.7624C308.49 16.421 308.588 17.0737 306.345 17.5507C306.112 16.6026 305.751 15.6891 305.27 14.8344C305.398 15.7867 305.369 16.753 305.183 17.6963C304.386 17.7264 303.758 17.2305 302.909 17.1038C297.494 16.2954 298.044 10.5766 299.551 8.76405C301.063 6.95652 306.083 6.41425 308.397 5.8268C308.608 5.62597 309.086 5.75149 309.297 5.5607C313.733 1.59792 319.665 0.941649 325.003 2.69804C325.483 2.85957 325.949 3.05756 326.397 3.29018C330.928 5.60814 334.806 8.79859 334.525 13.785C334.393 16.1205 333.85 16.484 334.525 17.8017C334.69 18.1251 333.239 21.1696 335.682 21.494C338.125 21.8185 337.023 23.6596 337.611 24.3289C339.886 26.922 331.733 34.4852 325.786 36.4796Z" fill="#2F2E41"/>
<path d="M211.413 207.997C208.763 197.128 209.205 186.424 213.744 175.936C213.792 175.287 214.101 174.683 214.605 174.257C215.108 173.831 215.764 173.617 216.429 173.662L241.231 175.38C241.896 175.427 242.514 175.729 242.951 176.221C243.388 176.712 243.607 177.353 243.56 178.002L241.23 210.062C241.182 210.711 240.873 211.315 240.369 211.741C239.866 212.167 239.21 212.381 238.545 212.336L213.743 210.618C213.078 210.571 212.459 210.269 212.023 209.777C211.586 209.286 211.367 208.646 211.413 207.997Z" fill="#F2F2F2"/>
<path d="M214.019 198.445C211.897 193.089 213.254 185.723 215.517 177.833C215.562 177.226 215.852 176.66 216.323 176.261C216.794 175.862 217.409 175.661 218.031 175.704L239.347 177.18C239.969 177.224 240.549 177.507 240.958 177.967C241.367 178.428 241.572 179.027 241.528 179.635L239.455 208.165C239.41 208.772 239.12 209.338 238.649 209.737C238.177 210.136 237.563 210.337 236.94 210.294L223.736 209.38C220.963 209.184 218.383 207.924 216.561 205.874C214.739 203.824 213.825 201.152 214.019 198.445Z" fill="white"/>
<path d="M224.456 203.642C225.67 203.642 226.654 202.681 226.654 201.496C226.654 200.31 225.67 199.35 224.456 199.35C223.242 199.35 222.258 200.31 222.258 201.496C222.258 202.681 223.242 203.642 224.456 203.642Z" fill="#F2F2F2"/>
<path d="M232.997 182.722C232.473 181.557 230.945 181.268 229.648 181.135C228.318 180.941 226.968 180.921 225.632 181.075C224.964 181.155 224.319 181.364 223.735 181.689C223.15 182.014 222.637 182.449 222.225 182.969C221.282 184.291 221.323 186.042 221.528 187.64C221.922 190.715 222.779 193.717 224.071 196.548L224.935 197.296C227.095 195.815 228.929 193.926 230.33 191.741C231.731 189.556 232.671 187.12 233.092 184.576C233.241 183.962 233.207 183.319 232.997 182.722Z" fill="#F2F2F2"/>
<path d="M344.205 94.9052L343.707 57.0941C343.681 55.4922 343.011 53.9645 341.842 52.8406C340.672 51.7168 339.097 51.0869 337.456 51.0869C336.607 51.0869 335.767 51.2557 334.987 51.583C334.207 51.9103 333.503 52.3892 332.919 52.9906C332.335 53.592 331.882 54.3032 331.589 55.0809C331.296 55.8586 331.168 56.6865 331.213 57.5142L332.963 96.7752L332.996 120.675C331.964 121.102 331.093 121.829 330.499 122.757C329.905 123.684 329.618 124.768 329.678 125.86C329.737 126.952 330.139 128 330.829 128.861C331.519 129.723 332.465 130.356 333.536 130.674C334.608 130.993 335.754 130.982 336.819 130.642C337.884 130.303 338.816 129.651 339.489 128.777C340.162 127.902 340.542 126.847 340.579 125.754C340.616 124.66 340.307 123.583 339.694 122.667L344.205 94.9052Z" fill="#A0616A"/>
<path d="M377.259 278.485H360.19L360.117 278.355C359.898 277.969 359.688 277.56 359.491 277.139C357.733 273.464 356.99 269.262 356.334 265.554L355.84 262.759C355.78 262.421 355.825 262.072 355.97 261.759C356.114 261.446 356.35 261.182 356.649 261C356.948 260.819 357.295 260.729 357.647 260.741C357.999 260.754 358.338 260.869 358.623 261.071C361.217 262.914 363.812 264.754 366.408 266.593C367.391 267.292 368.513 268.1 369.588 268.973C369.692 268.481 369.8 267.988 369.909 267.502C369.984 267.166 370.159 266.859 370.414 266.622C370.668 266.384 370.989 266.225 371.336 266.167C371.683 266.108 372.04 266.152 372.361 266.293C372.682 266.433 372.953 266.664 373.139 266.956L375.136 270.088C376.593 272.376 377.878 274.63 377.616 277.061C377.618 277.09 377.615 277.12 377.61 277.149C377.557 277.548 377.46 277.941 377.32 278.32L377.259 278.485Z" fill="#F0F0F0"/>
<path d="M394.39 278.846L232.195 279C232.033 279 231.878 278.936 231.764 278.824C231.65 278.712 231.586 278.561 231.586 278.403C231.586 278.244 231.65 278.093 231.764 277.981C231.878 277.869 232.033 277.805 232.195 277.805L394.39 277.65C394.552 277.651 394.707 277.715 394.821 277.827C394.935 277.939 394.999 278.09 394.999 278.248C394.999 278.406 394.935 278.558 394.821 278.67C394.707 278.782 394.552 278.845 394.39 278.846Z" fill="#CACACA"/>
</g>
<defs>
<clipPath id="clip0_154_3228">
<rect width="395" height="279" fill="white"/>
</clipPath>
</defs>
</svg>
